<svg width="40" height="40" viewBox="0 0 40 40" fill="none" xmlns="http://www.w3.org/2000/svg">
<path d="M28.8999 9.10016C28.5044 9.10016 28.1177 9.21746 27.7888 9.43722C27.4599 9.65699 27.2035 9.96934 27.0522 10.3348C26.9008 10.7002 26.8612 11.1024 26.9383 11.4903C27.0155 11.8783 27.206 12.2347 27.4857 12.5144C27.7654 12.7941 28.1218 12.9846 28.5097 13.0617C28.8977 13.1389 29.2998 13.0993 29.6653 12.9479C30.0307 12.7965 30.3431 12.5402 30.5629 12.2113C30.7826 11.8824 30.8999 11.4957 30.8999 11.1002C30.8999 10.5697 30.6892 10.061 30.3141 9.68595C29.9391 9.31088 29.4304 9.10016 28.8999 9.10016ZM36.5666 13.1335C36.5342 11.7507 36.2752 10.3825 35.7999 9.0835C35.3761 7.97205 34.7166 6.96563 33.8666 6.1335C33.0413 5.27921 32.0325 4.62379 30.9166 4.21683C29.621 3.7271 28.2513 3.46218 26.8666 3.4335C25.0999 3.3335 24.5333 3.3335 19.9999 3.3335C15.4666 3.3335 14.8999 3.3335 13.1333 3.4335C11.7485 3.46218 10.3788 3.7271 9.08325 4.21683C7.96938 4.62791 6.96148 5.28276 6.13325 6.1335C5.27896 6.95879 4.62355 7.96756 4.21659 9.0835C3.72685 10.3791 3.46194 11.7488 3.43325 13.1335C3.33325 14.9002 3.33325 15.4668 3.33325 20.0002C3.33325 24.5335 3.33325 25.1002 3.43325 26.8668C3.46194 28.2516 3.72685 29.6213 4.21659 30.9168C4.62355 32.0328 5.27896 33.0415 6.13325 33.8668C6.96148 34.7176 7.96938 35.3724 9.08325 35.7835C10.3788 36.2732 11.7485 36.5381 13.1333 36.5668C14.8999 36.6668 15.4666 36.6668 19.9999 36.6668C24.5333 36.6668 25.0999 36.6668 26.8666 36.5668C28.2513 36.5381 29.621 36.2732 30.9166 35.7835C32.0325 35.3765 33.0413 34.7211 33.8666 33.8668C34.7203 33.0378 35.3805 32.0305 35.7999 30.9168C36.2752 29.6178 36.5342 28.2497 36.5666 26.8668C36.5666 25.1002 36.6666 24.5335 36.6666 20.0002C36.6666 15.4668 36.6666 14.9002 36.5666 13.1335ZM33.5666 26.6668C33.5545 27.7248 33.3628 28.773 32.9999 29.7668C32.7338 30.4922 32.3064 31.1475 31.7499 31.6835C31.2093 32.2343 30.5553 32.6609 29.8333 32.9335C28.8394 33.2964 27.7912 33.488 26.7333 33.5002C25.0666 33.5835 24.4499 33.6002 20.0666 33.6002C15.6833 33.6002 15.0666 33.6002 13.3999 33.5002C12.3014 33.5207 11.2076 33.3516 10.1666 33.0002C9.47622 32.7136 8.85218 32.2881 8.33325 31.7502C7.78007 31.2147 7.35799 30.5588 7.09992 29.8335C6.69301 28.8254 6.46732 27.7534 6.43325 26.6668C6.43325 25.0002 6.33325 24.3835 6.33325 20.0002C6.33325 15.6168 6.33325 15.0002 6.43325 13.3335C6.44072 12.2519 6.63817 11.1801 7.01659 10.1668C7.31 9.46335 7.76036 8.83626 8.33325 8.3335C8.83961 7.76044 9.4654 7.30532 10.1666 7.00016C11.1825 6.63357 12.2532 6.44196 13.3333 6.4335C14.9999 6.4335 15.6166 6.3335 19.9999 6.3335C24.3833 6.3335 24.9999 6.3335 26.6666 6.4335C27.7245 6.44563 28.7728 6.63724 29.7666 7.00016C30.524 7.28125 31.2037 7.73824 31.7499 8.3335C32.2961 8.84546 32.7229 9.47138 32.9999 10.1668C33.3703 11.1817 33.5621 12.2531 33.5666 13.3335C33.6499 15.0002 33.6666 15.6168 33.6666 20.0002C33.6666 24.3835 33.6499 25.0002 33.5666 26.6668ZM19.9999 11.4502C18.3096 11.4535 16.6582 11.9577 15.2543 12.8992C13.8505 13.8407 12.7572 15.1772 12.1126 16.7398C11.4681 18.3023 11.3011 20.0209 11.6329 21.6784C11.9647 23.3358 12.7803 24.8577 13.9767 26.0518C15.1731 27.2459 16.6966 28.0585 18.3547 28.3871C20.0128 28.7156 21.731 28.5453 23.2924 27.8977C24.8537 27.2501 26.188 26.1542 27.1268 24.7486C28.0656 23.3429 28.5666 21.6905 28.5666 20.0002C28.5688 18.8753 28.3486 17.7612 27.9187 16.7218C27.4887 15.6823 26.8575 14.7382 26.0614 13.9436C25.2652 13.149 24.3198 12.5196 23.2796 12.0917C22.2393 11.6638 21.1247 11.4458 19.9999 11.4502ZM19.9999 25.5502C18.9022 25.5502 17.8292 25.2247 16.9165 24.6148C16.0038 24.005 15.2925 23.1382 14.8724 22.1241C14.4523 21.1099 14.3424 19.994 14.5566 18.9174C14.7707 17.8408 15.2993 16.8519 16.0755 16.0757C16.8517 15.2995 17.8406 14.771 18.9172 14.5568C19.9938 14.3427 21.1097 14.4526 22.1238 14.8726C23.1379 15.2927 24.0047 16.0041 24.6146 16.9167C25.2244 17.8294 25.5499 18.9025 25.5499 20.0002C25.5499 20.729 25.4064 21.4507 25.1275 22.1241C24.8485 22.7974 24.4397 23.4092 23.9244 23.9246C23.409 24.44 22.7972 24.8488 22.1238 25.1277C21.4505 25.4066 20.7288 25.5502 19.9999 25.5502Z" fill="black"/>
</svg>
