<svg width="40" height="40" viewBox="0 0 40 40" fill="none" xmlns="http://www.w3.org/2000/svg">
<path d="M32 18.0669V13.3336C29.7833 13.3336 28.0917 12.7419 27 11.5919C25.8796 10.2794 25.2519 8.61735 25.225 6.89189V6.55023L20.75 6.44189C20.75 6.44189 20.75 6.63356 20.75 6.89189V25.6669C20.5965 26.5057 20.1893 27.2772 19.5835 27.8773C18.9776 28.4773 18.2022 28.877 17.362 29.0225C16.5217 29.1679 15.6571 29.052 14.8848 28.6904C14.1125 28.3289 13.4697 27.7391 13.0433 27.0007C12.6168 26.2622 12.4272 25.4107 12.4999 24.5611C12.5727 23.7115 12.9045 22.9047 13.4503 22.2496C13.9962 21.5944 14.7299 21.1226 15.5525 20.8977C16.375 20.6728 17.2467 20.7057 18.05 20.9919V16.4086C17.5817 16.3318 17.1079 16.2928 16.6333 16.2919C14.9258 16.2919 13.2567 16.7982 11.8369 17.7469C10.4172 18.6955 9.31061 20.0439 8.65718 21.6214C8.00374 23.1989 7.83277 24.9348 8.16589 26.6095C8.49901 28.2842 9.32126 29.8225 10.5286 31.0299C11.736 32.2373 13.2744 33.0596 14.9491 33.3927C16.6238 33.7258 18.3596 33.5548 19.9372 32.9014C21.5147 32.248 22.8631 31.1414 23.8117 29.7217C24.7603 28.3019 25.2667 26.6327 25.2667 24.9252C25.2657 24.5714 25.2435 24.218 25.2 23.8669V16.2419C27.2349 17.5127 29.6023 18.1481 32 18.0669Z" fill="black"/>
</svg>
