<svg width="40" height="40" viewBox="0 0 40 40" fill="none" xmlns="http://www.w3.org/2000/svg">
<path d="M36.6666 9.66653C35.4138 10.21 34.089 10.5693 32.7333 10.7332C34.1635 9.87873 35.2354 8.5345 35.7499 6.94986C34.4058 7.74997 32.9345 8.31369 31.3999 8.61653C30.3742 7.50415 29.0082 6.76369 27.5163 6.51128C26.0243 6.25887 24.4908 6.50879 23.1562 7.22184C21.8216 7.9349 20.7615 9.07075 20.142 10.4513C19.5225 11.8318 19.3787 13.3788 19.7333 14.8499C17.0156 14.7124 14.3573 14.0048 11.931 12.773C9.5047 11.5411 7.36466 9.81268 5.64992 7.69986C5.04848 8.75014 4.73245 9.93956 4.73325 11.1499C4.73112 12.2738 5.00695 13.3809 5.53618 14.3725C6.06541 15.364 6.83162 16.2094 7.76659 16.8332C6.67988 16.8036 5.61639 16.512 4.66659 15.9832V16.0665C4.67473 17.6413 5.22658 19.165 6.22878 20.3798C7.23098 21.5946 8.62201 22.4259 10.1666 22.7332C9.57201 22.9141 8.95471 23.0095 8.33325 23.0165C7.90307 23.0115 7.47396 22.9725 7.04992 22.8999C7.48977 24.2545 8.34096 25.4384 9.48504 26.2868C10.6291 27.1352 12.0092 27.6058 13.4333 27.6332C11.0286 29.5253 8.05972 30.558 4.99992 30.5665C4.44281 30.5684 3.88614 30.535 3.33325 30.4665C6.4573 32.4836 10.0979 33.5544 13.8166 33.5499C16.3827 33.5765 18.9285 33.0916 21.3051 32.1233C23.6817 31.1551 25.8416 29.723 27.6586 27.9107C29.4756 26.0984 30.9132 23.9422 31.8875 21.568C32.8618 19.1939 33.3533 16.6494 33.3333 14.0832C33.3333 13.7999 33.3333 13.4999 33.3333 13.1999C34.6411 12.2245 35.769 11.0289 36.6666 9.66653Z" fill="black"/>
</svg>
