<svg width="468" height="97" viewBox="0 0 468 97" fill="none" xmlns="http://www.w3.org/2000/svg">
<g clip-path="url(#clip0_482_4834)">
<path d="M0 20.7988H19.4542V95.8738H0V20.7988Z" fill="#08122C"/>
<path d="M29.8672 47.5254H49.3214V95.8687H29.8672V47.5254Z" fill="#08122C"/>
<path d="M94.9615 96.9841C90.3799 97.0018 86.3524 96.9912 82.879 96.9522C76.8882 96.8885 71.7737 95.0827 68.6296 91.9384C65.8785 89.1871 63.9134 85.0603 63.9134 76.7056V62.8485H56.7383V47.5201H63.9134V35.4316L83.3676 32.0908V47.5201H94.9615V62.8485H83.3676V75.33C83.3676 79.1647 84.5467 81.3264 88.1847 81.3264C90.3463 81.3264 89.9904 81.3317 94.9669 81.4964V96.9841H94.9615Z" fill="#08122C"/>
<path d="M186.906 93.2182C181.796 95.5764 174.627 96.952 168.041 96.952C150.945 96.952 139.25 87.5192 139.25 72.1908C139.25 56.8625 151.731 46.447 165.486 46.447C177.378 46.447 189.657 53.8191 189.657 71.2082C189.657 72.7804 189.556 74.7456 189.359 76.1212H158.996C160.86 81.2306 165.481 82.9993 170.691 82.9993C175.211 82.9993 181.106 81.6237 186.906 78.4794V93.2182ZM172.168 66.0988C171.281 61.6745 168.237 60.2033 165.385 60.2033C161.944 60.2033 159.586 62.3649 158.704 66.0988H172.168Z" fill="#08122C"/>
<path d="M197.707 47.5254H216.768V52.7305L216.965 52.8261C220.109 49.1932 224.528 46.6384 229.839 46.6384C231.113 46.6384 232.489 46.8349 233.376 47.0315V64.9146C231.607 64.5215 229.642 64.325 228.07 64.325C223.943 64.325 220.406 65.3076 217.161 68.3563V95.8687H197.707V47.5254Z" fill="#08122C"/>
<path d="M240.25 20.7988H259.704V95.8738H240.25V20.7988Z" fill="#08122C"/>
<path d="M295.174 46.447C311.388 46.447 323.078 57.452 323.078 71.7022C323.078 85.9524 311.383 96.9573 295.174 96.9573C278.964 96.9573 267.27 85.9524 267.27 71.7022C267.27 57.452 278.964 46.447 295.174 46.447ZM295.174 80.742C300.187 80.742 303.82 76.8116 303.82 71.7022C303.82 66.5927 300.182 62.6624 295.174 62.6624C290.165 62.6624 286.527 66.5927 286.527 71.7022C286.527 76.8116 290.165 80.742 295.174 80.742Z" fill="#08122C"/>
<path d="M364.936 94.594C362.184 95.8741 357.468 96.9522 352.848 96.9522C346.852 96.9522 341.742 95.0827 338.598 91.9384C335.847 89.1871 333.882 85.0603 333.882 76.7056V62.8485H326.707V47.5201H333.882V35.4316L353.336 32.0908V47.5201H364.93V62.8485H353.336V75.33C353.336 79.1647 354.515 81.3264 358.153 81.3264C360.315 81.3264 362.87 80.5404 364.936 79.7543V94.594Z" fill="#08122C"/>
<path d="M407.381 94.594C404.63 95.8741 399.914 96.9522 395.293 96.9522C389.297 96.9522 384.188 95.0827 381.044 91.9384C378.293 89.1871 376.328 85.0603 376.328 76.7056V62.8485H369.152V47.5201H376.328V35.4316L395.782 32.0908V47.5201H407.376V62.8485H395.782V75.33C395.782 79.1647 396.961 81.3264 400.599 81.3264C402.76 81.3264 405.315 80.5404 407.381 79.7543V94.594Z" fill="#08122C"/>
<path d="M440.095 46.447C456.31 46.447 467.999 57.452 467.999 71.7022C467.999 85.9524 456.305 96.9573 440.095 96.9573C423.886 96.9573 412.191 85.9524 412.191 71.7022C412.191 57.452 423.886 46.447 440.095 46.447ZM440.095 80.742C445.109 80.742 448.742 76.8116 448.742 71.7022C448.742 66.5927 445.104 62.6624 440.095 62.6624C435.087 62.6624 431.449 66.5927 431.449 71.7022C431.449 76.8116 435.087 80.742 440.095 80.742Z" fill="#08122C"/>
<path d="M97.2852 81.4964C102.262 81.3317 101.9 81.3264 104.067 81.3264C107.7 81.3264 108.884 79.1647 108.884 75.33V62.8485H97.2905V47.5201H108.884V32.0908L128.339 35.4316V47.5201H135.514V62.8485H128.339V76.7056C128.339 85.0603 126.374 89.1871 123.622 91.9384C120.478 95.0827 115.369 96.8832 109.373 96.9522C105.9 96.9912 101.872 97.0018 97.2905 96.9841V81.4964H97.2852Z" fill="#08122C"/>
<path d="M58.6744 17.3732C58.446 17.4316 58.1645 17.5059 57.9096 17.5909C57.6441 17.6706 57.3838 17.7609 57.1289 17.8565C56.6084 18.0318 56.1092 18.2655 55.6046 18.4726C54.6221 18.94 53.6714 19.4393 52.8004 20.0235C51.0478 21.1707 49.5342 22.5198 48.2914 24.007C47.9887 24.3841 47.7178 24.7771 47.431 25.1595C47.2929 25.356 47.1389 25.5313 47.0168 25.7384L46.6609 26.3492C46.4325 26.7582 46.167 27.1459 45.9705 27.5655L45.4022 28.8296C45.3119 29.0421 45.2057 29.2439 45.126 29.4563L44.9189 30.1096L44.4993 31.4056C44.2763 32.2873 44.4144 31.8358 44.2179 32.7122L43.7664 34.7517C43.2778 36.9293 42.667 38.5599 39.5123 37.9491C36.0655 37.2799 36.2301 34.4436 36.724 33.2114C36.7931 33.0361 37.1595 32.1279 37.2392 31.958C37.7172 30.9382 37.8287 30.6301 38.3439 29.6422L39.2149 28.1763L39.6504 27.4487C39.8044 27.2097 39.9903 26.9813 40.1549 26.7476L41.1906 25.3666C41.5464 24.9152 41.9713 24.4903 42.359 24.0548L42.9538 23.4121C43.1503 23.1996 43.3893 23.0084 43.6071 22.8066C44.0532 22.4083 44.4834 22.0046 44.9402 21.6275C46.8149 20.1244 48.934 18.8656 51.2018 17.9149C52.3278 17.4263 53.5174 17.0492 54.7071 16.7146C55.9286 16.4118 57.1077 16.1675 58.4301 16.056C58.8709 16.0188 59.2639 16.2843 59.3064 16.6508C59.3436 16.9695 59.1046 17.2563 58.7541 17.3519L58.6691 17.3732H58.6744Z" fill="#A2D929"/>
<path d="M75.0859 0.424903L79.7012 2.6344L85.692 4.45086L86.1859 9.57093L78.6124 10.3251L83.1587 10.6226L84.9909 11.3874L86.5896 10.5641L84.5608 16.0188L79.9721 18.9719L76.9289 18.7754L75.8613 17.7609L75.0859 20.56L68.8455 21.362L66.9229 18.7329L67.2894 17.5325L71.2567 14.0961L67.061 15.5461L65.1172 16.3056L66.3812 10.5641L66.0519 5.36971L67.9586 1.71023L68.9517 1.41811L73.8272 5.34846L70.2158 0L75.0859 0.424903Z" fill="#A2D929"/>
</g>
<defs>
<clipPath id="clip0_482_4834">
<rect width="468" height="97" fill="white"/>
</clipPath>
</defs>
</svg>
