<?xml version="1.0" standalone="no"?>
<!DOCTYPE svg PUBLIC "-//W3C//DTD SVG 20010904//EN"
 "http://www.w3.org/TR/2001/REC-SVG-20010904/DTD/svg10.dtd">
<svg version="1.0" xmlns="http://www.w3.org/2000/svg"
 width="2451.000000pt" height="2451.000000pt" viewBox="0 0 2451.000000 2451.000000"
 preserveAspectRatio="xMidYMid meet">
<metadata>
Created by potrace 1.14, written by Peter Selinger 2001-2017
</metadata>
<g transform="translate(0.000000,2451.000000) scale(0.100000,-0.100000)"
fill="#000000" stroke="none">
<path d="M8573 23823 c-4 -9 -1 -19 5 -21 7 -2 12 -10 12 -18 0 -9 5 -12 10
-9 9 5 15 -15 11 -37 0 -5 7 -8 16 -8 9 0 13 -3 10 -6 -4 -4 3 -15 15 -26 12
-10 23 -26 24 -35 2 -9 8 -19 15 -23 7 -5 8 -14 4 -21 -5 -8 -5 -11 0 -7 10 9
38 -19 30 -31 -3 -6 3 -15 14 -21 13 -7 18 -16 14 -27 -4 -11 -3 -14 5 -9 7 4
12 2 12 -4 0 -6 5 -8 12 -4 8 5 9 2 5 -10 -5 -11 2 -25 18 -40 14 -13 25 -28
25 -35 0 -6 5 -11 11 -11 5 0 7 -4 4 -10 -3 -5 -1 -10 5 -10 6 0 9 -4 6 -8 -2
-4 8 -18 24 -30 18 -15 27 -30 25 -43 -3 -12 0 -17 7 -13 7 5 9 1 5 -9 -4 -10
-2 -16 6 -14 7 1 11 -4 9 -10 -1 -7 4 -13 12 -13 8 0 13 -10 12 -22 -1 -14 5
-23 14 -23 8 0 14 -8 14 -17 -1 -10 3 -16 10 -15 6 1 10 -6 10 -16 -1 -10 1
-16 4 -13 9 9 72 -85 65 -97 -3 -6 -1 -7 5 -3 8 5 12 -1 12 -16 0 -19 2 -20
11 -8 9 12 10 11 6 -7 -3 -13 0 -21 6 -20 6 1 13 -8 15 -20 2 -13 10 -23 18
-23 8 0 13 -6 11 -12 -1 -7 4 -12 12 -10 8 2 11 -3 8 -13 -4 -8 -2 -15 4 -15
6 0 9 -7 6 -14 -4 -11 -1 -13 10 -9 12 5 15 2 10 -10 -4 -12 -1 -17 11 -17 15
0 15 -2 2 -10 -12 -8 -12 -10 5 -10 17 0 17 -2 5 -10 -12 -8 -10 -10 9 -10 19
0 21 -3 12 -14 -9 -11 -9 -16 0 -22 8 -4 9 -3 5 4 -4 7 -2 12 3 12 6 0 11 -6
11 -13 0 -8 9 -22 21 -33 14 -13 18 -25 14 -44 -4 -18 -3 -21 4 -10 6 8 13 11
17 7 4 -3 1 -13 -5 -21 -10 -12 -9 -14 7 -10 13 4 22 -2 30 -21 16 -34 15 -39
-2 -23 -8 7 -12 16 -9 21 2 4 -5 7 -17 7 -12 0 -25 10 -32 25 -6 13 -15 22
-19 19 -5 -3 -9 0 -9 7 0 7 -3 10 -6 6 -3 -3 -16 4 -28 17 -11 13 -33 31 -48
40 -15 10 -25 22 -22 27 3 5 -3 6 -12 2 -11 -4 -15 -3 -10 5 3 6 -3 14 -15 17
-12 4 -37 23 -55 42 -19 19 -34 31 -34 27 0 -4 -8 3 -19 14 -10 12 -22 18 -26
14 -5 -4 -5 1 -2 11 4 11 3 16 -4 12 -5 -4 -18 2 -28 14 -10 11 -20 18 -23 16
-3 -3 -11 2 -19 12 -12 14 -12 16 0 8 10 -5 12 -4 7 4 -4 6 -11 9 -15 7 -10
-7 -62 40 -54 48 4 4 -1 4 -12 0 -15 -6 -17 -4 -12 10 6 14 3 17 -8 12 -9 -3
-18 1 -21 9 -3 7 -12 11 -20 8 -10 -4 -12 0 -8 11 5 12 0 16 -17 16 -12 0 -20
3 -16 6 9 9 -20 35 -35 32 -7 -2 -12 5 -12 14 1 9 -4 14 -11 12 -7 -3 -19 4
-27 15 -8 12 -18 18 -21 14 -4 -3 -7 1 -7 10 0 9 -5 19 -12 23 -7 5 -9 2 -4
-7 4 -8 1 -6 -7 4 -8 9 -19 17 -26 17 -6 0 -11 7 -11 15 0 9 -6 12 -17 8 -11
-4 -14 -3 -9 5 4 7 1 12 -8 12 -9 0 -16 4 -16 8 0 5 -11 15 -25 22 -14 7 -25
20 -25 27 0 8 -4 11 -10 8 -5 -3 -10 -1 -10 6 0 7 -3 10 -6 7 -3 -4 -21 10
-39 29 -22 24 -38 33 -47 27 -9 -5 -9 -2 2 11 12 15 12 17 1 10 -9 -5 -19 -2
-28 11 -8 10 -17 19 -21 19 -4 0 -6 5 -6 11 1 8 -7 9 -25 4 -14 -4 -32 -5 -38
-3 -7 3 -13 0 -13 -6 0 -6 -10 -11 -22 -11 -41 1 -69 -6 -77 -18 -4 -6 -17
-10 -29 -7 -12 2 -22 0 -22 -6 0 -5 -9 -9 -21 -9 -12 0 -23 -8 -26 -20 -3 -11
-10 -17 -16 -13 -5 3 -7 2 -4 -4 3 -5 -1 -21 -11 -34 -9 -13 -18 -32 -19 -43
-2 -10 -10 -24 -19 -30 -8 -6 -16 -21 -17 -33 0 -13 -7 -25 -15 -28 -7 -3 -10
-9 -7 -15 3 -5 1 -10 -5 -10 -7 0 -10 -7 -6 -15 3 -9 0 -15 -10 -15 -11 0 -14
-6 -10 -16 3 -8 2 -12 -4 -9 -9 6 -12 2 -14 -27 -1 -7 -5 -18 -11 -25 -5 -7
-16 -19 -23 -28 -10 -12 -10 -15 0 -15 9 -1 7 -5 -4 -14 -10 -7 -15 -16 -11
-19 3 -4 -1 -9 -10 -13 -9 -3 -13 -12 -10 -20 3 -8 1 -14 -5 -14 -8 0 -20 -26
-20 -46 -1 -3 -9 -13 -19 -22 -16 -15 -21 -30 -25 -69 -1 -9 -5 -10 -13 -3 -9
8 -12 4 -11 -12 1 -15 -4 -22 -13 -20 -12 3 -12 0 -1 -12 10 -13 10 -16 -3
-16 -10 0 -14 -6 -11 -15 4 -8 1 -15 -6 -15 -6 0 -9 -4 -5 -9 3 -6 -2 -14 -11
-19 -9 -5 -15 -13 -15 -18 2 -18 -11 -44 -20 -44 -6 0 -8 -4 -4 -9 3 -5 1 -12
-5 -16 -6 -4 -8 -11 -5 -16 4 -5 -1 -9 -10 -9 -9 0 -13 -5 -10 -11 4 -5 -1
-19 -10 -29 -10 -12 -13 -20 -6 -25 13 -8 10 -55 -4 -55 -5 0 -4 -4 3 -8 7 -5
14 -27 16 -49 1 -21 6 -44 9 -50 4 -6 3 -13 -1 -17 -9 -9 -11 -66 -2 -66 3 0
5 -27 5 -60 0 -33 3 -60 6 -60 7 0 3 -55 -5 -69 -4 -5 -2 -13 4 -16 8 -5 7
-11 -1 -21 -9 -11 -9 -14 1 -14 7 0 10 -6 7 -13 -3 -8 -1 -20 3 -27 5 -8 4
-22 -1 -32 -6 -11 -6 -18 0 -18 5 0 8 -19 7 -42 -1 -24 1 -55 5 -71 5 -19 4
-25 -3 -21 -8 5 -9 1 -3 -12 4 -10 9 -37 10 -59 1 -22 4 -42 5 -45 7 -13 5
-36 -5 -42 -7 -6 -7 -10 1 -15 6 -5 9 -21 7 -38 -5 -44 -5 -46 5 -91 5 -22 8
-66 7 -97 -1 -31 2 -54 6 -52 4 3 3 -11 -1 -30 -5 -21 -4 -38 2 -41 5 -4 1
-15 -11 -28 -13 -14 -17 -26 -11 -35 4 -8 5 -21 0 -30 -15 -32 -26 -77 -26
-106 1 -16 -6 -36 -14 -43 -11 -10 -11 -12 -1 -6 10 5 12 3 5 -7 -10 -16 -14
-32 -18 -76 -1 -18 -7 -38 -13 -45 -6 -7 -9 -23 -7 -35 2 -12 -3 -23 -12 -27
-12 -5 -13 -10 -6 -19 8 -9 7 -21 -4 -42 -12 -23 -12 -30 -2 -37 10 -6 10 -8
1 -8 -7 0 -10 -7 -7 -15 4 -8 1 -15 -6 -15 -7 0 -10 -7 -6 -15 3 -8 0 -15 -6
-15 -7 0 -7 -4 1 -13 7 -9 7 -17 1 -23 -5 -5 -11 -24 -13 -42 -2 -18 -7 -35
-10 -39 -4 -3 -7 -19 -7 -35 0 -15 -3 -28 -7 -28 -5 0 -8 -10 -9 -22 -2 -33
-8 -61 -18 -77 -7 -10 -5 -12 3 -6 10 6 11 3 2 -12 -9 -19 -21 -67 -25 -103 0
-8 -5 -18 -11 -22 -6 -5 -4 -8 5 -8 13 0 13 -1 0 -10 -8 -5 -15 -25 -16 -45 0
-20 -7 -40 -13 -45 -10 -5 -10 -9 -2 -15 9 -5 9 -10 1 -20 -7 -8 -9 -19 -5
-25 3 -5 1 -10 -6 -10 -9 0 -9 -3 0 -14 9 -11 9 -15 0 -18 -15 -5 -26 -108
-11 -108 6 0 14 5 17 10 3 6 13 10 21 10 9 0 12 -5 8 -12 -4 -7 -3 -8 5 -4 6
4 9 12 6 17 -4 5 2 10 12 11 10 0 24 2 31 2 8 1 19 9 26 18 9 12 16 14 29 7
13 -8 17 -6 17 6 0 12 6 15 21 10 16 -5 19 -4 14 6 -6 9 -2 11 13 7 12 -4 22
-2 22 2 0 9 69 36 83 32 4 -1 7 3 7 8 0 6 5 10 11 10 5 0 7 -6 4 -12 -4 -7 0
-5 8 5 8 9 24 17 36 17 12 0 20 4 16 9 -3 6 4 8 15 6 14 -3 20 1 20 13 0 14 2
14 9 3 8 -12 12 -12 26 3 10 9 24 15 32 12 7 -3 16 1 19 9 4 8 10 12 15 9 6
-3 16 0 24 6 8 6 18 9 24 6 5 -4 17 1 25 10 12 11 16 12 16 2 1 -9 4 -8 10 3
6 10 20 15 35 14 14 -2 25 1 25 6 0 5 12 9 26 9 14 0 23 4 20 9 -4 5 5 8 19 6
16 -1 25 3 25 12 0 11 4 11 20 3 15 -8 20 -8 20 3 0 13 12 17 57 18 13 1 20 5
17 10 -5 9 9 13 34 10 6 -1 12 3 12 9 0 5 3 9 8 9 4 -1 9 0 12 1 15 5 47 11
63 11 9 0 15 4 12 10 -5 8 23 14 48 10 4 0 7 4 7 10 0 6 9 9 20 6 13 -3 20 0
20 9 0 12 4 12 21 3 15 -8 19 -8 15 0 -7 10 8 15 42 14 6 -1 12 6 12 14 0 8 5
11 10 8 6 -4 17 -1 25 5 8 7 15 10 15 6 0 -4 13 0 29 9 17 8 39 16 50 18 11 2
24 6 27 10 4 4 12 7 18 7 6 0 -7 -11 -28 -25 -22 -13 -44 -31 -48 -39 -5 -9
-15 -16 -22 -16 -18 0 -48 -35 -39 -45 5 -4 2 -5 -5 -1 -7 4 -15 1 -18 -8 -3
-9 -12 -16 -20 -16 -8 0 -14 -5 -14 -11 0 -5 -5 -7 -11 -4 -6 4 -9 0 -7 -9 2
-9 -8 -22 -22 -29 -14 -8 -24 -19 -22 -26 1 -7 -2 -10 -7 -6 -11 6 -40 -19
-60 -51 -11 -17 -11 -16 -6 6 6 24 6 24 -13 -4 -11 -16 -34 -38 -51 -48 -17
-11 -31 -24 -31 -30 0 -5 -5 -6 -10 -3 -6 4 -10 3 -9 -2 1 -4 1 -15 0 -23 -1
-13 -2 -13 -11 0 -9 14 -11 13 -14 -10 0 -5 -5 -10 -10 -9 -5 0 -13 -6 -18
-15 -5 -9 -15 -16 -23 -16 -8 0 -17 -5 -21 -12 -5 -7 -2 -8 7 -3 8 4 5 -1 -6
-12 -13 -14 -22 -16 -27 -9 -5 7 -8 4 -8 -6 0 -10 -5 -18 -11 -18 -5 0 -7 -5
-3 -12 4 -6 3 -8 -3 -5 -6 4 -18 -2 -28 -13 -10 -11 -22 -17 -26 -14 -5 3 -6
-3 -2 -13 6 -16 5 -16 -10 -4 -15 12 -17 12 -11 -3 4 -10 0 -18 -10 -22 -9 -3
-13 -11 -9 -17 4 -6 1 -7 -6 -3 -8 5 -25 -7 -48 -34 -24 -28 -41 -39 -51 -35
-9 3 -14 3 -10 0 7 -7 -50 -65 -64 -65 -5 0 -6 -5 -2 -12 5 -7 0 -9 -14 -6
-15 4 -19 2 -15 -8 3 -8 0 -14 -6 -14 -6 0 -11 -12 -11 -28 0 -15 -7 -37 -15
-48 -8 -12 -11 -24 -8 -28 3 -3 1 -6 -7 -6 -9 0 -10 -3 -1 -14 8 -10 8 -15 1
-18 -6 -2 -13 -17 -16 -33 -3 -16 -8 -32 -12 -35 -4 -3 -7 -12 -7 -20 1 -8 -3
-21 -8 -27 -5 -7 -6 -13 -1 -13 5 0 2 -5 -6 -10 -9 -6 -11 -10 -3 -10 7 0 10
-7 6 -17 -4 -11 -3 -14 5 -9 7 4 12 1 12 -9 0 -9 4 -13 10 -10 6 3 7 -1 4 -9
-3 -9 -1 -16 6 -16 6 0 8 -5 5 -10 -4 -6 -1 -9 7 -8 7 2 12 -5 12 -14 -1 -10
1 -16 5 -14 3 2 12 -2 19 -10 7 -8 9 -14 5 -14 -4 0 0 -5 10 -11 9 -5 17 -15
17 -21 0 -6 10 -19 22 -29 11 -11 17 -19 13 -19 -4 0 2 -8 13 -19 12 -10 19
-21 15 -25 -3 -3 0 -6 7 -6 7 0 10 -3 7 -7 -4 -3 2 -13 14 -21 11 -8 18 -20
15 -29 -3 -8 -2 -11 4 -8 5 3 17 -7 27 -22 10 -15 26 -36 37 -45 10 -10 16
-18 12 -18 -4 0 0 -7 8 -16 9 -8 14 -20 11 -25 -4 -5 1 -9 9 -9 9 0 17 -4 17
-10 1 -5 2 -14 3 -19 0 -5 5 -13 10 -18 5 -5 6 -2 1 6 -6 10 -4 12 4 7 7 -5
10 -14 7 -22 -3 -7 6 -22 19 -33 14 -10 25 -24 25 -30 0 -31 98 -52 135 -29 6
3 25 5 43 3 18 -1 34 1 37 5 2 4 20 6 39 5 19 -1 33 1 31 5 -2 3 13 6 33 6 44
1 65 6 74 19 5 6 8 6 8 -1 0 -6 12 -10 28 -8 15 1 27 3 27 4 0 4 111 18 200
26 73 6 75 7 75 13 0 3 24 7 53 9 28 1 63 4 77 6 81 12 159 20 188 20 17 0 32
3 32 8 0 4 19 8 43 9 89 1 125 4 122 9 -2 3 15 7 38 8 87 6 97 7 97 12 0 3 12
6 28 7 15 1 39 3 55 6 16 2 27 0 27 -7 0 -6 5 -4 10 4 5 8 15 15 22 15 8 0 13
11 12 28 -1 15 3 27 8 27 6 0 8 6 5 14 -3 7 1 23 9 34 10 15 11 23 3 28 -8 5
-8 9 1 14 7 4 14 19 15 33 2 13 7 33 13 43 5 11 8 27 7 37 -2 10 3 17 13 18
10 0 12 3 6 5 -6 3 -9 16 -6 29 2 14 8 22 14 19 5 -3 6 5 3 19 -4 14 -2 28 4
31 6 4 11 17 11 30 0 12 3 26 7 30 6 6 8 13 16 68 2 12 8 23 14 25 6 2 9 13 6
24 -3 10 0 26 7 34 7 8 9 15 4 15 -5 0 -2 5 6 10 11 7 11 10 2 10 -7 0 -10 5
-6 11 4 7 19 -1 40 -22 18 -18 31 -37 27 -42 -3 -5 0 -8 7 -5 14 4 50 -25 50
-41 0 -10 31 -25 45 -22 6 2 7 -1 3 -5 -4 -4 8 -20 27 -37 19 -16 33 -33 30
-37 -3 -5 4 -6 15 -3 11 3 20 1 20 -4 0 -6 33 -11 73 -11 101 -2 172 -8 185
-16 7 -4 12 -1 12 6 0 8 3 9 8 2 8 -11 62 -11 81 0 6 4 11 3 11 -2 0 -8 18
-10 115 -15 17 -1 33 -6 37 -12 5 -7 8 -6 8 1 0 11 64 13 76 2 4 -4 15 -3 25
2 11 7 20 7 24 0 3 -5 20 -7 38 -4 18 2 37 5 44 6 7 1 12 4 11 7 -2 19 4 24
12 11 7 -11 10 -11 10 -2 0 7 5 10 12 6 7 -4 8 -3 4 4 -4 7 3 17 18 24 14 6
26 15 26 19 0 5 8 6 18 2 9 -3 14 -2 10 2 -12 12 28 36 49 29 15 -5 15 -4 3 5
-13 10 -8 15 13 12 4 0 7 4 7 10 0 6 6 9 14 6 8 -3 16 2 19 15 3 11 10 17 16
13 6 -3 22 6 35 20 17 18 26 22 29 13 3 -8 6 -6 6 5 1 10 6 15 11 12 6 -3 10
-1 10 6 0 7 3 9 6 6 4 -4 15 3 25 14 10 12 22 18 27 15 6 -3 13 1 16 10 3 8
10 12 16 9 5 -3 10 1 10 10 0 9 4 13 10 10 5 -3 17 4 27 15 23 27 59 48 48 28
-3 -7 2 -4 12 8 10 11 25 18 32 16 8 -3 11 0 7 6 -3 5 8 15 25 21 17 6 28 15
24 20 -3 6 3 8 15 6 11 -2 18 0 15 4 -7 12 24 23 38 14 6 -4 8 0 4 10 -3 9 -2
19 3 22 4 3 11 -1 13 -7 3 -8 6 -6 6 4 1 10 4 17 9 16 4 -1 17 3 28 10 12 6
24 8 28 4 4 -3 4 2 0 12 -5 13 -4 17 4 12 6 -3 14 -1 17 5 4 5 14 8 22 5 8 -4
11 -1 8 5 -4 6 2 13 13 16 11 3 23 11 26 19 3 8 12 11 23 7 10 -3 15 -3 11 2
-8 8 40 51 48 42 3 -2 19 9 36 25 24 22 33 26 39 16 7 -10 9 -9 9 5 0 9 7 17
16 17 8 0 13 4 10 9 -3 5 2 12 11 15 15 6 15 8 3 16 -12 8 -12 10 2 15 10 4
15 16 13 30 -1 14 6 32 16 41 9 8 16 24 14 34 -2 10 3 21 11 24 11 4 13 13 9
27 -5 16 -4 19 5 14 8 -5 11 -3 8 6 -3 8 4 29 14 47 11 20 13 30 6 26 -10 -6
-11 -5 -1 8 7 8 10 18 6 21 -3 4 -1 7 6 7 9 0 12 9 8 26 -3 18 -1 24 8 20 12
-4 21 21 27 72 1 6 5 12 10 12 4 0 8 12 8 26 0 15 4 23 10 19 6 -4 10 -3 9 2
-5 17 14 83 23 83 5 0 7 4 4 9 -3 4 3 26 13 47 10 21 16 44 14 51 -3 8 -2 13
3 12 20 -3 28 2 16 10 -11 6 -10 11 3 25 11 11 12 16 4 16 -7 0 -5 6 6 13 10
8 15 19 11 25 -3 6 -1 16 6 24 12 13 17 26 22 56 1 8 9 18 17 23 12 7 12 9 -1
9 -13 0 -13 1 0 10 8 5 11 10 5 10 -5 0 -4 5 3 12 7 7 12 20 12 30 0 10 4 18
9 18 5 0 7 10 3 22 -3 13 -1 19 5 15 12 -8 28 57 18 73 -3 6 1 7 9 4 12 -5 16
1 16 21 0 15 9 40 21 56 14 20 16 29 7 29 -10 1 -9 4 2 13 8 7 15 21 14 32 0
11 4 26 9 33 7 9 3 12 -17 12 -14 0 -26 -4 -26 -10 0 -5 -7 -10 -15 -10 -8 0
-15 -4 -15 -9 0 -5 -13 -11 -29 -14 -16 -3 -35 -13 -44 -21 -8 -8 -17 -12 -21
-9 -3 4 -6 1 -6 -6 0 -7 -4 -9 -10 -6 -5 3 -10 1 -10 -5 0 -7 -6 -10 -13 -7
-7 3 -19 -3 -25 -14 -7 -10 -18 -16 -25 -13 -8 3 -20 -2 -27 -11 -11 -13 -15
-13 -21 -3 -6 10 -9 8 -9 -6 0 -12 -5 -16 -15 -12 -9 3 -15 0 -15 -10 0 -8 -4
-13 -9 -9 -5 3 -12 1 -15 -4 -7 -11 -46 -2 -46 10 0 5 -6 6 -14 3 -7 -3 -21 2
-30 11 -9 9 -20 13 -26 10 -6 -3 -13 1 -16 9 -3 9 -10 13 -15 11 -4 -3 -28 4
-51 17 -24 12 -52 23 -63 24 -10 1 -21 6 -23 12 -2 6 -10 8 -19 5 -12 -5 -14
-3 -8 7 6 10 3 12 -13 8 -12 -4 -22 -2 -22 3 0 5 -9 9 -20 9 -11 0 -20 5 -20
10 0 6 -11 10 -25 10 -14 0 -25 3 -25 8 0 4 -25 7 -55 6 -31 0 -58 3 -62 9 -3
5 -9 3 -14 -4 -6 -9 -12 -10 -16 -4 -5 6 -24 10 -43 10 -19 0 -43 4 -54 8 -13
7 -16 6 -11 -3 6 -9 2 -9 -14 -1 -11 7 -21 8 -21 3 0 -4 -9 -8 -20 -9 -11 -1
-20 2 -20 7 0 4 -13 7 -30 6 -16 -1 -30 0 -30 3 0 3 -46 6 -103 5 -56 0 -106
3 -112 6 -5 3 -19 6 -30 6 -11 -1 -23 4 -27 9 -5 7 -8 6 -8 -1 0 -9 -43 -10
-152 -1 -31 2 -38 19 -11 24 18 4 111 12 185 16 21 1 38 6 38 12 0 5 5 4 12
-3 8 -8 17 -8 30 -1 11 6 24 8 31 6 7 -2 20 0 29 4 10 6 19 5 23 -1 4 -6 12
-7 18 -3 19 11 47 11 47 -1 0 -6 5 -4 10 4 6 9 27 15 62 16 77 2 112 8 120 19
5 6 8 5 8 -4 0 -11 3 -11 17 0 17 14 20 14 40 -2 7 -6 13 -6 17 0 3 5 15 7 26
4 13 -3 20 0 20 8 0 11 2 11 10 -1 8 -12 10 -12 10 -1 0 9 7 11 22 8 12 -4 28
-1 35 5 7 6 13 6 13 1 0 -5 9 -9 20 -10 11 -1 20 2 20 7 0 5 9 7 20 5 11 -2
22 -1 24 3 2 4 32 7 65 5 33 -1 63 3 67 8 4 6 12 5 22 -3 12 -10 14 -10 8 0
-6 10 5 13 46 13 47 0 113 5 113 9 0 1 32 3 70 6 97 7 95 6 95 16 0 5 5 6 12
2 16 -10 58 -12 64 -3 2 4 15 6 29 4 14 -1 25 2 25 7 0 5 5 6 10 3 10 -6 15 9
10 30 -1 6 -4 35 -5 65 -2 30 -7 78 -10 105 -12 90 -12 95 -1 95 7 0 7 3 1 8
-11 8 -14 27 -20 117 -2 33 -6 74 -10 90 -10 52 -12 105 -4 99 5 -3 2 13 -6
35 -7 21 -11 42 -7 46 4 3 0 10 -8 15 -8 6 -10 10 -5 10 6 0 10 19 9 43 -1 23
-3 42 -4 42 -6 0 -18 138 -22 252 -2 40 -6 73 -10 73 -4 0 -5 6 -2 14 3 8 1
17 -5 20 -5 4 -8 18 -5 31 2 14 0 25 -6 25 -6 0 -9 4 -6 8 4 7 -13 12 -56 15
-10 1 -18 5 -18 9 0 4 -11 8 -24 8 -14 0 -28 5 -31 10 -4 6 -10 8 -14 5 -5 -2
-17 2 -27 9 -13 10 -23 11 -31 4 -8 -6 -13 -7 -13 -1 0 10 -78 38 -94 34 -4
-1 -14 3 -21 9 -7 6 -21 7 -30 3 -12 -4 -16 -3 -11 5 3 6 2 13 -4 17 -5 3 -10
0 -10 -7 0 -10 -2 -10 -9 0 -4 8 -11 13 -15 13 -29 -4 -46 1 -40 11 4 7 3 8
-5 4 -6 -4 -18 -2 -26 4 -12 10 -15 10 -15 -1 -1 -10 -5 -8 -15 5 -8 10 -20
16 -28 13 -8 -3 -24 1 -36 9 -15 11 -21 12 -21 3 0 -7 -8 -5 -20 6 -11 10 -20
15 -20 10 0 -4 -8 -1 -17 6 -14 12 -16 12 -9 -1 7 -13 6 -13 -6 0 -7 8 -23 14
-35 12 -13 -2 -23 1 -23 7 0 6 -6 8 -14 5 -7 -3 -20 1 -27 9 -8 8 -22 13 -32
11 -9 -1 -22 5 -28 14 -10 16 -10 16 -5 0 4 -15 2 -16 -19 -6 -13 6 -22 15
-19 19 3 5 -6 5 -20 -1 -19 -7 -26 -6 -26 3 0 7 -12 14 -27 15 -15 1 -30 8
-35 15 -6 9 -8 8 -8 -3 0 -13 -1 -13 -10 0 -5 8 -10 11 -10 6 0 -6 -7 -1 -15
10 -8 10 -15 14 -15 7 0 -14 -26 -11 -41 4 -6 6 -18 9 -25 6 -8 -3 -14 0 -14
7 0 6 -4 8 -10 5 -5 -3 -10 -1 -10 6 0 8 -4 8 -15 -1 -12 -10 -16 -9 -21 5 -5
13 -9 14 -15 3 -7 -10 -9 -11 -9 0 0 7 -4 10 -10 7 -5 -3 -10 -1 -10 5 0 6 -4
8 -10 5 -5 -3 -10 -1 -10 6 0 8 -4 8 -15 -1 -12 -10 -16 -9 -21 3 -3 9 -13 13
-25 10 -11 -3 -19 0 -19 7 0 8 -9 11 -25 8 -13 -3 -22 -2 -20 2 3 5 -2 10 -10
14 -8 3 -15 0 -15 -6 0 -6 -9 -1 -20 12 -11 13 -20 18 -20 12 0 -6 -7 -9 -15
-6 -8 4 -12 11 -8 17 4 6 0 8 -10 4 -10 -3 -17 -3 -17 1 0 9 -98 52 -118 52
-6 0 -12 3 -12 8 0 8 -61 38 -73 34 -4 -1 -10 5 -13 13 -3 8 -10 13 -14 10
-12 -7 -61 21 -52 29 4 5 -2 6 -13 4 -13 -2 -19 2 -17 11 3 12 0 12 -12 1 -11
-8 -16 -9 -16 -1 0 6 -7 11 -15 11 -8 0 -15 5 -15 10 0 6 -9 10 -20 10 -11 0
-20 4 -20 10 0 5 -7 7 -15 4 -8 -4 -15 -2 -15 4 0 5 -7 13 -16 16 -10 4 -13 2
-9 -7 4 -6 0 -4 -8 6 -11 14 -16 15 -20 5 -4 -8 -6 -7 -6 5 -1 9 -8 17 -16 17
-20 0 -85 32 -85 42 0 4 -8 4 -17 1 -12 -5 -15 -2 -11 9 5 11 1 14 -18 10 -15
-3 -26 1 -30 11 -3 9 -14 14 -25 12 -10 -2 -19 0 -19 4 0 9 -80 46 -92 43 -5
-1 -8 3 -8 9 0 6 -7 9 -15 5 -9 -3 -15 0 -15 9 0 9 -6 12 -15 9 -8 -4 -15 -1
-15 6 0 8 -8 10 -21 7 -15 -4 -17 -2 -10 6 6 9 2 12 -14 13 -14 1 -31 9 -40
17 -9 9 -23 13 -32 10 -12 -5 -15 -2 -10 9 5 14 1 15 -23 8 -16 -4 -30 -6 -33
-4 -2 3 -25 6 -51 8 -25 1 -49 5 -52 9 -4 4 -18 4 -32 0 -17 -4 -23 -2 -18 5
5 8 2 10 -8 6 -9 -3 -13 -11 -10 -18 4 -6 -1 -3 -11 6 -13 12 -24 14 -41 8
-14 -6 -26 -5 -29 0 -3 5 -19 8 -35 6 -18 -2 -30 1 -30 8 0 6 -4 5 -9 -3 -6
-9 -10 -10 -16 -2 -5 9 -10 9 -21 0 -8 -6 -14 -7 -14 -2 0 5 -6 10 -12 10 -7
1 -33 2 -58 4 -25 1 -51 7 -59 13 -11 8 -13 8 -8 0 4 -7 -2 -11 -18 -11 -14 0
-25 2 -25 6 0 3 -21 6 -48 6 -26 0 -53 4 -59 9 -8 5 -13 4 -13 -3 0 -7 -3 -10
-7 -8 -13 8 -104 19 -187 22 -51 3 -82 9 -87 17 -7 10 -9 10 -9 -2 0 -9 -3
-11 -8 -5 -6 9 -27 11 -42 5 -17 -6 -52 -5 -56 2 -9 14 -34 9 -41 -9z m2173
-2425 c3 -4 -8 -5 -25 -4 -17 1 -31 -2 -31 -8 0 -5 -3 -7 -6 -3 -11 11 5 23
30 22 14 -1 28 -4 32 -7z m21 -10 c-3 -8 -6 -5 -6 6 -1 11 2 17 5 13 3 -3 4
-12 1 -19z m-2576 -2525 c13 -16 12 -17 -3 -4 -17 13 -22 21 -14 21 2 0 10 -8
17 -17z"/>
<path d="M8870 23346 c0 -2 7 -7 16 -10 8 -3 12 -2 9 4 -6 10 -25 14 -25 6z"/>
<path d="M5590 20039 c0 -3 -13 -4 -29 -1 -16 2 -32 -1 -35 -7 -5 -8 -13 -8
-26 -1 -13 7 -21 7 -25 0 -4 -6 -15 -8 -26 -5 -10 4 -19 2 -19 -4 0 -6 -7 -8
-15 -5 -8 4 -22 1 -30 -6 -12 -10 -15 -10 -15 0 0 8 -7 10 -17 5 -10 -4 -29
-9 -43 -11 -13 -3 -31 -11 -39 -17 -10 -8 -13 -8 -8 -1 4 8 -3 11 -23 10 -17
0 -30 -5 -30 -9 0 -5 -16 -7 -35 -5 -23 3 -36 -1 -40 -10 -4 -12 -8 -12 -22
-1 -14 12 -16 12 -8 0 6 -11 4 -13 -7 -8 -9 3 -21 0 -27 -6 -6 -6 -11 -8 -11
-4 0 4 -9 3 -20 -3 -15 -8 -20 -8 -20 2 -1 9 -4 8 -13 -2 -7 -10 -25 -15 -44
-14 -18 1 -33 -2 -33 -7 0 -5 -3 -8 -7 -8 -5 1 -10 0 -13 -1 -3 -1 -16 -4 -30
-6 -51 -8 -75 -12 -77 -14 -2 -2 -7 -3 -12 -4 -5 0 -12 -4 -16 -8 -4 -4 -13
-4 -21 -1 -8 3 -14 0 -14 -5 0 -6 -11 -9 -25 -6 -15 3 -25 0 -25 -7 0 -6 -9
-9 -20 -6 -10 3 -21 0 -23 -7 -5 -14 -49 -15 -60 -1 -4 6 -7 1 -5 -10 2 -15
-2 -19 -15 -17 -10 2 -24 -2 -32 -8 -7 -6 -17 -10 -21 -9 -17 3 -74 -14 -74
-22 0 -4 -11 -6 -25 -3 -19 3 -25 0 -26 -13 0 -10 -3 -13 -5 -6 -3 7 -12 9
-20 6 -7 -3 -12 -9 -9 -13 3 -5 -6 -7 -20 -4 -15 2 -25 0 -25 -7 0 -6 -7 -9
-15 -6 -8 4 -17 1 -21 -4 -3 -6 -15 -9 -25 -6 -11 3 -17 2 -14 -3 6 -9 -24
-24 -42 -21 -6 1 -14 -3 -18 -9 -3 -5 -11 -10 -16 -10 -6 0 -7 6 -3 13 5 8 3
8 -9 -2 -9 -7 -15 -17 -12 -21 3 -5 -4 -6 -15 -3 -12 3 -29 -2 -39 -11 -10
-10 -28 -18 -40 -19 -11 -1 -21 -5 -21 -9 0 -4 -9 -5 -20 -3 -11 2 -18 0 -15
-6 4 -5 -1 -9 -10 -9 -9 0 -30 -9 -46 -21 -20 -14 -29 -16 -29 -7 -1 7 -9 3
-20 -11 -11 -13 -20 -18 -20 -12 0 12 -39 -5 -51 -23 -4 -5 -11 -6 -17 -2 -6
3 -15 -2 -21 -11 -9 -16 -12 -16 -21 -3 -8 13 -10 12 -10 -3 0 -10 -4 -16 -9
-13 -5 3 -14 -1 -21 -9 -7 -8 -16 -12 -21 -9 -5 3 -9 0 -9 -7 0 -7 -3 -9 -6
-6 -4 3 -26 -5 -49 -19 -27 -15 -49 -22 -60 -17 -13 4 -16 3 -11 -5 6 -11 -22
-28 -47 -30 -5 0 -16 -9 -25 -19 -9 -11 -25 -17 -36 -15 -11 2 -16 0 -12 -7 7
-10 -8 -15 -41 -14 -7 1 -11 -3 -8 -7 3 -5 -4 -11 -15 -15 -11 -3 -20 -11 -20
-17 0 -6 -6 -6 -15 2 -13 11 -14 10 -9 -5 5 -13 4 -16 -4 -11 -7 4 -12 2 -12
-4 0 -6 -5 -8 -10 -5 -6 3 -13 -1 -16 -10 -5 -13 -9 -13 -23 -3 -9 7 -13 8 -9
4 8 -10 -31 -43 -45 -38 -4 1 -10 -5 -13 -13 -3 -8 -10 -12 -15 -9 -5 3 -12
-2 -15 -11 -6 -13 -8 -14 -15 -3 -7 10 -9 9 -9 -4 0 -11 -5 -15 -14 -12 -9 3
-20 -3 -28 -15 -7 -12 -20 -21 -28 -21 -19 -1 -52 -25 -43 -33 3 -4 -4 -4 -16
-2 -12 2 -19 0 -16 -6 4 -5 0 -9 -8 -9 -8 0 -18 -8 -21 -17 -5 -13 -9 -14 -15
-5 -5 9 -11 5 -21 -12 -7 -14 -20 -28 -28 -31 -11 -4 -12 -2 -6 8 5 7 1 4 -10
-8 -10 -11 -21 -20 -25 -20 -3 0 -5 -3 -4 -7 2 -4 -5 -4 -14 -1 -11 4 -14 3
-9 -5 4 -7 1 -12 -9 -12 -9 0 -14 -4 -11 -9 4 -5 -4 -7 -16 -3 -11 3 -19 1
-16 -4 3 -5 0 -15 -8 -22 -8 -7 -14 -10 -14 -6 0 3 -6 1 -13 -5 -8 -6 -16 -8
-19 -5 -3 3 -15 -6 -26 -20 -11 -15 -28 -26 -38 -26 -16 0 -17 -2 -4 -10 13
-8 13 -10 -2 -10 -9 0 -24 -10 -32 -22 -9 -12 -16 -17 -16 -10 0 6 -5 12 -10
12 -6 0 -9 -3 -8 -8 2 -4 -8 -19 -21 -32 -13 -14 -21 -18 -17 -10 4 8 -2 3
-14 -13 -12 -15 -26 -25 -31 -21 -5 3 -9 0 -9 -6 0 -6 -3 -9 -7 -7 -5 3 -14
-1 -21 -9 -7 -8 -9 -14 -5 -14 4 0 0 -5 -10 -11 -9 -5 -22 -7 -27 -4 -6 4 -7
-1 -3 -11 5 -14 3 -16 -11 -11 -10 4 -15 3 -11 -3 3 -6 2 -10 -4 -10 -5 0 -13
-9 -16 -20 -4 -11 -10 -18 -15 -15 -10 6 -44 -24 -53 -46 -4 -10 -6 -10 -6 -1
-1 6 -6 12 -12 12 -5 0 -8 -4 -5 -9 3 -4 -3 -19 -14 -31 -11 -13 -20 -20 -20
-16 0 4 -6 1 -14 -6 -8 -7 -12 -16 -9 -20 2 -5 -2 -8 -9 -8 -7 0 -24 -14 -37
-31 -13 -16 -30 -28 -37 -25 -9 3 -11 0 -7 -11 4 -10 2 -14 -3 -10 -6 3 -26
-12 -44 -33 -18 -21 -37 -37 -42 -34 -4 3 -8 -3 -8 -13 0 -15 -2 -16 -10 -3
-7 10 -10 11 -10 2 0 -17 -50 -72 -66 -72 -8 0 -11 -6 -8 -14 3 -8 0 -17 -7
-22 -8 -5 -10 -3 -4 5 6 10 3 11 -14 2 -11 -7 -21 -14 -21 -17 0 -3 4 -2 10 1
5 3 7 0 4 -9 -3 -8 -12 -12 -20 -9 -8 3 -14 2 -13 -3 4 -22 -2 -33 -21 -39
-11 -4 -18 -10 -15 -15 3 -4 -6 -15 -20 -24 -14 -9 -25 -23 -25 -32 0 -9 -5
-12 -12 -8 -7 5 -9 2 -5 -8 3 -10 0 -15 -11 -14 -10 0 -16 -5 -14 -13 2 -8 -3
-11 -12 -8 -10 4 -13 1 -9 -8 3 -8 -2 -18 -11 -21 -9 -3 -16 -13 -16 -21 0 -8
-4 -11 -10 -8 -5 3 -15 -5 -21 -19 -7 -14 -16 -23 -20 -20 -5 2 -19 -12 -32
-33 -13 -21 -36 -47 -50 -57 -14 -11 -24 -24 -21 -28 3 -4 -2 -11 -10 -14 -9
-3 -16 -12 -16 -20 0 -8 -4 -14 -9 -14 -5 0 -13 -9 -16 -20 -3 -11 -13 -20
-21 -20 -8 0 -13 -3 -12 -7 3 -10 -30 -73 -38 -73 -3 0 -2 6 2 13 4 6 4 9 0 5
-4 -3 -16 -21 -26 -40 -10 -18 -23 -32 -29 -31 -5 2 -8 -7 -6 -19 3 -11 2 -18
-1 -15 -9 9 -33 -16 -26 -27 3 -5 -2 -6 -12 -3 -9 4 -15 3 -11 -2 7 -13 -5
-42 -16 -35 -5 3 -9 -5 -9 -16 0 -13 -8 -24 -20 -27 -11 -3 -17 -9 -14 -14 3
-5 0 -9 -7 -9 -7 0 -9 -3 -6 -6 4 -4 -2 -15 -14 -25 -15 -13 -17 -19 -7 -23 7
-3 3 -4 -9 -2 -15 3 -20 0 -16 -10 3 -8 -7 -26 -23 -40 -16 -15 -22 -23 -14
-18 8 5 -1 -12 -20 -36 -19 -24 -28 -40 -20 -36 8 5 5 -1 -8 -13 -12 -13 -19
-27 -15 -34 5 -9 3 -9 -8 0 -13 11 -15 9 -14 -10 1 -12 -4 -28 -12 -35 -7 -8
-11 -18 -8 -23 4 -5 -1 -6 -10 -3 -11 5 -14 2 -9 -10 3 -9 1 -16 -6 -16 -6 0
-8 -5 -5 -10 3 -6 -1 -13 -9 -16 -9 -3 -13 -10 -10 -15 3 -5 -1 -12 -10 -15
-8 -3 -12 -12 -9 -20 3 -8 0 -14 -7 -14 -6 0 -9 -4 -6 -9 3 -5 -1 -11 -9 -15
-8 -3 -15 -11 -15 -17 0 -7 -8 -18 -18 -26 -9 -8 -11 -12 -4 -8 6 3 12 2 12
-3 0 -6 -7 -13 -16 -16 -8 -3 -13 -10 -10 -15 3 -5 -4 -11 -15 -14 -12 -3 -18
-10 -14 -17 4 -6 1 -17 -5 -25 -7 -8 -9 -15 -4 -15 5 0 1 -5 -9 -11 -9 -6 -14
-15 -11 -21 5 -8 1 -9 -10 -5 -10 4 -15 3 -11 -3 3 -5 0 -20 -7 -32 -7 -13
-11 -29 -9 -37 1 -7 -2 -10 -8 -6 -10 5 -15 -7 -12 -27 0 -5 -4 -8 -11 -8 -6
0 -9 -3 -5 -6 3 -4 -1 -13 -9 -21 -8 -8 -12 -19 -9 -24 4 -5 1 -9 -5 -9 -7 0
-10 -7 -6 -15 3 -9 0 -15 -10 -15 -10 0 -14 -6 -10 -15 3 -8 1 -15 -5 -15 -6
0 -9 -6 -6 -14 3 -8 -1 -17 -9 -20 -9 -3 -12 -10 -9 -16 3 -5 1 -10 -4 -10 -6
0 -11 -12 -11 -26 0 -19 -4 -25 -15 -20 -13 5 -14 2 -4 -15 8 -16 8 -20 0 -15
-7 5 -14 -4 -17 -23 -4 -17 -11 -31 -16 -31 -6 0 -8 -7 -4 -15 3 -8 1 -15 -5
-15 -6 0 -7 -4 -4 -10 3 -5 1 -10 -4 -10 -6 0 -10 -6 -8 -12 1 -7 -5 -12 -13
-10 -12 3 -12 1 -3 -9 9 -9 8 -15 -3 -27 -8 -8 -18 -27 -21 -43 -3 -16 -9 -26
-14 -23 -5 3 -9 -4 -9 -15 0 -33 -1 -35 -16 -52 -8 -9 -11 -19 -7 -22 3 -4 1
-7 -5 -7 -6 0 -9 -6 -6 -13 3 -8 -5 -19 -18 -26 -13 -6 -15 -9 -6 -7 15 4 16
2 6 -19 -6 -14 -15 -25 -19 -25 -5 0 -6 -7 -3 -15 4 -8 1 -15 -5 -15 -6 0 -8
-7 -5 -15 4 -8 1 -15 -5 -15 -6 0 -11 -12 -11 -26 0 -17 -4 -23 -12 -18 -8 5
-9 2 -5 -11 5 -11 1 -22 -10 -31 -11 -8 -13 -13 -5 -14 14 0 12 -19 -5 -38 -7
-7 -10 -19 -7 -27 4 -8 2 -15 -3 -15 -5 0 -9 -23 -9 -50 1 -28 -2 -50 -5 -50
-10 0 -10 -199 1 -220 7 -13 7 -20 1 -20 -7 0 -7 -8 -1 -24 5 -13 6 -27 3 -30
-4 -3 -1 -6 6 -6 8 0 11 -10 8 -30 -3 -18 0 -34 9 -41 8 -6 11 -15 8 -20 -3
-5 -1 -9 4 -9 6 0 8 -9 5 -20 -4 -15 0 -20 13 -20 16 0 17 -2 4 -10 -12 -8
-12 -10 -1 -10 8 0 11 -3 8 -7 -4 -3 0 -11 9 -17 8 -6 16 -21 17 -34 0 -12 7
-22 14 -22 12 0 14 -6 13 -26 -1 -3 13 -18 30 -34 16 -15 30 -33 30 -39 0 -6
5 -11 11 -11 5 0 7 -4 4 -10 -4 -6 1 -7 11 -3 12 4 15 3 10 -5 -4 -7 -2 -12 3
-12 15 0 51 -32 46 -41 -3 -4 2 -10 11 -13 8 -3 12 -2 9 4 -3 6 -1 10 4 10 6
0 11 -7 11 -16 0 -11 5 -14 16 -10 12 5 15 2 10 -10 -4 -12 -2 -15 9 -10 8 3
15 1 15 -4 0 -6 7 -10 15 -10 8 0 15 -5 15 -11 0 -5 4 -7 10 -4 5 3 10 1 10
-5 0 -7 7 -10 15 -6 8 3 15 1 15 -4 0 -6 7 -10 15 -10 8 0 15 -4 15 -10 0 -5
9 -10 19 -10 11 0 23 -5 26 -10 4 -6 16 -10 28 -8 13 2 21 -2 20 -9 -3 -12 15
-12 36 1 9 6 12 5 8 -1 -9 -14 15 -23 43 -18 11 2 18 0 15 -4 -3 -5 2 -11 9
-14 8 -3 17 -1 20 6 3 9 5 9 5 0 1 -6 10 -9 21 -6 11 3 20 1 20 -5 0 -5 17 -9
38 -8 20 1 43 -2 49 -7 20 -15 276 -18 285 -4 5 8 10 9 15 2 7 -9 39 -12 61
-5 4 1 10 2 15 1 4 0 7 3 7 8 0 4 11 6 25 3 15 -2 25 0 25 7 0 7 5 9 11 5 6
-3 15 0 20 7 7 12 9 11 9 -1 0 -13 2 -13 9 -1 5 8 17 16 25 18 49 10 77 23 70
34 -3 5 2 9 10 9 9 0 16 5 16 11 0 5 5 7 10 4 5 -3 10 -1 10 5 0 6 4 9 8 6 4
-2 14 0 22 6 12 8 12 9 -2 4 -10 -3 -18 -1 -18 4 0 6 9 10 21 10 11 0 17 5 14
10 -3 6 -1 10 5 10 6 0 8 5 4 12 -4 7 -3 8 4 4 7 -4 17 3 24 18 6 14 17 26 24
26 8 0 11 6 7 17 -5 12 -3 14 7 8 10 -6 12 -4 7 8 -3 9 0 18 9 21 8 3 14 13
14 21 0 10 5 13 12 9 8 -5 9 -2 5 9 -3 10 -3 17 2 17 8 0 24 38 22 53 -1 4 4
7 9 7 5 0 9 3 9 8 -3 19 2 33 10 28 5 -4 7 2 4 13 -3 10 0 22 6 25 6 4 11 21
11 38 0 23 4 29 15 24 13 -4 13 -2 5 14 -7 14 -7 21 2 27 16 10 19 43 4 43 -6
0 -2 7 8 15 11 8 17 18 13 21 -4 4 -1 14 6 22 10 13 9 14 -3 7 -12 -6 -13 -5
-2 6 6 7 12 26 12 42 0 22 4 28 15 23 12 -4 13 -1 7 12 -8 15 -8 34 -2 47 1 3
3 8 4 13 1 4 5 17 9 29 5 12 10 37 12 55 3 18 9 53 15 78 6 25 12 56 14 70 1
14 8 34 14 46 8 16 8 24 0 32 -9 9 -9 12 0 12 7 0 11 6 9 13 -1 6 4 11 12 9
10 -2 12 1 5 10 -11 14 -11 24 1 51 4 10 5 20 2 24 -4 3 0 18 8 34 18 33 19
53 4 43 -6 -3 -4 4 5 18 8 13 16 39 17 58 2 19 5 40 8 45 3 6 6 17 7 25 0 8 3
22 7 30 8 21 18 72 18 92 0 9 6 19 13 21 9 4 12 15 8 33 -4 20 -2 25 8 19 8
-5 11 -3 8 6 -3 8 1 32 9 54 16 43 21 63 22 83 1 7 6 10 12 6 8 -4 9 0 4 15
-4 15 -1 23 10 27 12 5 13 9 5 14 -9 5 -9 13 -1 29 6 11 15 30 21 41 5 10 7
26 4 33 -3 8 2 17 11 21 9 3 13 11 10 16 -4 6 -2 16 3 23 5 7 8 20 7 30 -2 9
1 15 6 11 5 -3 9 6 9 20 0 14 5 28 10 31 6 4 7 11 4 17 -5 7 -2 9 8 6 9 -4 15
0 15 8 0 8 -5 14 -11 14 -6 0 -3 5 7 11 9 6 15 14 12 20 -4 5 -3 9 2 9 7 0 15
15 38 75 5 11 9 25 10 30 0 6 7 9 15 7 11 -3 11 0 0 12 -8 11 -9 16 -1 16 6 0
11 7 11 15 0 8 8 15 18 16 14 0 14 2 -3 9 -11 5 -14 9 -7 9 7 1 11 5 8 10 -3
5 1 12 10 15 8 3 13 10 9 15 -3 6 3 14 12 20 13 7 14 10 4 11 -11 0 -11 4 2
18 10 10 14 22 10 25 -3 4 -1 7 5 7 6 0 9 7 5 15 -3 10 0 15 8 13 8 -2 13 3
11 10 -1 7 5 20 13 28 8 9 13 19 10 24 -3 4 2 11 11 14 8 3 12 10 9 16 -3 5
-1 10 4 10 6 0 11 6 11 14 0 8 5 18 12 22 7 5 8 3 3 -6 -5 -9 -4 -11 4 -6 9 6
9 11 -1 24 -7 9 -8 13 -3 10 6 -4 17 2 24 14 10 16 10 19 -1 13 -7 -3 -4 1 7
10 11 9 19 21 17 27 -2 6 4 8 14 4 13 -5 14 -4 5 7 -8 11 -6 18 9 32 11 10 17
22 14 26 -3 5 0 9 6 9 6 0 9 4 6 9 -3 5 1 12 10 15 8 3 13 10 9 15 -3 6 3 14
12 20 14 8 15 11 3 11 -12 0 -11 3 3 11 9 5 17 15 17 22 0 6 10 20 23 32 13
11 18 18 12 15 -6 -3 -3 2 7 11 9 9 15 19 12 22 -3 3 4 10 15 17 12 6 19 15
16 20 -3 5 4 14 15 20 11 6 20 17 20 24 0 7 9 21 20 31 11 10 20 24 20 32 0 8
5 11 10 8 6 -3 10 1 10 9 0 9 9 25 20 36 11 11 20 23 20 26 0 8 21 28 45 43
14 9 15 11 3 7 -12 -3 -15 -1 -11 10 3 7 11 14 18 14 8 0 17 9 20 20 4 11 11
18 16 15 5 -3 6 1 3 10 -5 11 0 18 15 22 11 3 18 9 15 14 -3 5 0 9 6 9 6 0 8
4 5 10 -3 5 0 7 8 4 8 -3 17 2 21 11 4 10 2 14 -6 9 -7 -4 -8 -3 -4 4 4 7 16
12 27 12 10 0 19 5 19 11 0 5 -6 7 -12 3 -7 -5 12 16 42 46 30 30 58 54 62 52
4 -1 4 6 1 15 -4 11 -3 14 5 9 7 -4 12 -1 12 9 0 9 4 14 9 11 4 -3 13 6 20 20
8 18 17 24 28 20 14 -6 14 -4 2 11 -9 11 -10 14 -1 9 6 -4 12 -2 12 3 0 6 4
10 8 9 4 -2 39 29 77 67 38 39 63 61 55 50 -14 -18 -14 -19 3 -6 9 7 17 18 17
23 0 5 9 19 21 31 19 21 20 21 14 2 -5 -16 -4 -16 7 3 8 12 17 20 20 17 3 -4
9 3 13 14 3 12 11 21 16 21 6 0 21 12 35 28 14 15 23 20 19 12 -3 -8 2 -5 11
8 9 12 23 22 31 22 8 0 11 5 8 10 -3 6 4 10 17 10 18 0 20 2 8 10 -13 8 -12
10 3 10 10 0 20 7 23 15 4 8 10 12 15 9 5 -3 12 2 15 10 3 9 10 14 14 11 4 -3
10 2 14 10 3 8 12 15 21 15 8 0 14 3 14 8 -3 19 2 25 11 12 8 -13 10 -12 10 3
0 9 7 17 15 17 9 0 18 7 21 15 4 8 12 15 20 15 8 0 14 5 14 10 0 6 7 10 16 10
8 0 13 4 10 8 -3 5 10 15 29 22 19 8 35 20 35 28 0 12 3 12 16 2 12 -11 15
-11 12 1 -2 8 2 13 9 12 8 -2 10 4 6 15 -3 9 -3 14 2 10 4 -4 15 -2 23 5 13
10 14 9 7 -3 -4 -8 3 -4 17 10 13 14 23 28 21 32 -2 4 2 5 10 2 8 -3 18 0 22
5 3 6 11 8 17 5 7 -4 8 -2 4 4 -4 7 3 14 19 18 13 3 22 11 19 16 -4 6 -1 9 7
6 7 -2 22 5 32 16 10 12 16 14 12 6 -4 -10 -2 -9 8 2 8 10 17 15 20 11 4 -3 7
-1 7 6 0 7 4 10 9 7 4 -3 16 3 26 14 10 11 22 17 26 14 5 -3 9 0 9 6 0 6 5 8
10 5 6 -3 13 1 16 10 5 12 9 13 20 4 12 -10 13 -8 8 6 -5 13 -4 16 4 11 7 -4
15 -1 18 8 3 9 12 12 21 9 12 -5 14 -3 8 7 -6 10 -4 12 7 7 9 -3 24 3 34 14
10 11 24 17 31 15 8 -3 16 1 19 9 3 8 12 11 21 8 11 -4 14 -2 9 5 -5 8 0 12
12 12 11 0 25 7 32 15 7 9 19 14 27 11 8 -3 16 1 20 10 3 8 12 13 19 10 8 -3
14 -1 14 5 0 6 5 7 10 4 6 -3 13 1 16 10 5 13 9 13 22 3 12 -10 14 -10 8 0 -4
7 0 14 11 18 10 3 26 9 35 14 11 6 18 5 21 -3 3 -7 6 -4 6 7 1 12 6 16 17 12
8 -3 12 -2 9 4 -3 6 5 10 19 10 14 0 26 5 26 10 0 6 3 9 8 9 18 -3 33 2 28 9
-2 4 3 9 12 10 50 5 67 11 64 22 -2 7 3 10 12 7 9 -4 18 -2 22 4 3 6 12 8 20
5 7 -3 17 0 21 7 7 11 15 13 66 21 10 1 22 7 25 12 8 10 26 16 62 19 14 2 24
7 23 13 -2 6 7 9 18 7 12 -2 28 3 37 11 11 11 17 12 22 4 5 -8 11 -8 21 2 17
15 33 20 71 22 16 0 28 5 28 9 0 5 5 5 10 2 6 -3 10 -2 10 4 0 5 8 8 17 7 21
-3 73 22 73 36 0 5 7 8 15 4 10 -3 17 3 21 20 3 13 15 29 26 35 14 8 17 14 10
21 -8 8 -8 17 0 31 5 11 6 22 2 26 -5 3 -10 15 -11 26 -6 45 -10 55 -36 79
-15 14 -27 22 -27 19 0 -3 -12 2 -26 12 -18 12 -50 17 -110 19 -46 1 -84 -1
-84 -5z m-2860 -1113 c0 -2 -7 -7 -16 -10 -8 -3 -12 -2 -9 4 6 10 25 14 25 6z"/>
<path d="M8014 19828 l-19 -23 23 19 c12 11 22 21 22 23 0 8 -8 2 -26 -19z"/>
<path d="M9930 19586 c0 -2 8 -10 18 -17 15 -13 16 -12 3 4 -13 16 -21 21 -21
13z"/>
<path d="M17714 16137 c1 -45 5 -88 10 -96 6 -9 5 -12 -1 -8 -6 4 -14 0 -17
-9 -3 -9 -2 -12 4 -9 7 4 9 -5 5 -24 -3 -16 0 -33 5 -36 7 -5 8 -11 1 -19 -5
-6 -9 -36 -7 -66 2 -30 -1 -65 -6 -78 -4 -13 -4 -21 1 -18 5 3 7 -22 5 -56 -2
-38 2 -68 9 -77 9 -11 9 -13 0 -8 -14 9 -15 -52 -1 -70 5 -7 6 -18 1 -25 -12
-19 -12 -158 0 -151 6 4 7 1 1 -8 -13 -21 -14 -201 0 -218 8 -11 8 -13 -1 -8
-15 10 -15 -52 1 -72 8 -11 8 -13 0 -8 -7 4 -15 0 -18 -9 -3 -9 -2 -12 4 -9 7
4 9 -5 5 -24 -3 -16 0 -33 5 -36 7 -5 8 -11 1 -19 -5 -6 -9 -36 -7 -66 2 -30
-1 -65 -6 -78 -4 -13 -4 -21 1 -18 5 3 7 -22 5 -56 -2 -38 2 -68 9 -77 9 -11
9 -13 0 -8 -14 9 -15 -52 -1 -70 5 -7 6 -18 1 -25 -12 -19 -12 -158 0 -151 6
4 7 1 1 -8 -13 -20 -13 -160 -1 -152 6 4 7 1 1 -8 -13 -20 -13 -160 -1 -152 6
4 7 1 1 -8 -13 -21 -14 -201 0 -218 8 -11 8 -13 -1 -8 -15 10 -15 -52 1 -72 8
-11 8 -13 0 -8 -7 4 -15 0 -18 -9 -3 -9 -2 -12 4 -9 7 4 9 -5 5 -24 -3 -16 0
-33 5 -36 7 -5 8 -11 1 -19 -5 -6 -9 -36 -7 -66 2 -30 -1 -65 -6 -78 -4 -13
-4 -21 1 -18 5 3 7 -22 5 -56 -2 -38 2 -68 9 -77 9 -11 9 -13 0 -8 -14 9 -15
-52 -1 -70 5 -7 6 -18 1 -25 -12 -19 -12 -158 0 -151 6 4 7 1 1 -8 -13 -21
-14 -201 0 -218 8 -11 8 -13 -1 -8 -15 10 -15 -52 1 -72 8 -11 8 -13 0 -8 -7
4 -15 0 -18 -9 -3 -9 -2 -12 4 -9 7 4 9 -5 5 -24 -3 -16 0 -33 5 -36 7 -5 8
-11 1 -19 -5 -6 -9 -36 -7 -66 2 -30 -1 -65 -6 -78 -4 -13 -4 -21 1 -18 5 3 8
-7 7 -23 -1 -28 -3 -29 -39 -27 -20 2 -40 -1 -43 -6 -3 -4 -11 -5 -17 -1 -15
9 -378 10 -384 0 -2 -4 -10 -4 -16 0 -20 13 -47 13 -47 2 0 -8 -4 -8 -12 -2
-7 5 -59 9 -116 8 -56 -1 -105 2 -108 6 -3 5 -11 9 -17 9 -7 0 -6 -4 3 -11 11
-7 2 -9 -33 -6 -26 2 -50 0 -53 -5 -3 -5 -11 -5 -17 0 -7 5 -31 7 -54 6 -29
-3 -43 0 -43 9 0 9 -2 9 -8 1 -8 -13 -86 -14 -98 -1 -4 4 -12 7 -18 7 -6 0 -4
-5 4 -11 11 -7 2 -9 -33 -6 -26 2 -50 0 -53 -5 -3 -5 -11 -5 -17 0 -7 5 -30 7
-52 6 -23 -2 -43 2 -47 9 -5 8 -8 8 -8 1 0 -8 -66 -11 -216 -10 -119 1 -218
-2 -221 -7 -2 -4 -10 -4 -16 0 -20 13 -47 13 -47 2 0 -8 -4 -8 -12 -2 -7 5
-59 9 -116 8 -56 -1 -105 2 -108 6 -3 5 -11 9 -17 9 -7 0 -6 -4 3 -11 11 -7 2
-9 -33 -6 -26 2 -50 0 -53 -5 -3 -5 -11 -5 -17 0 -7 5 -30 7 -52 6 -23 -2 -43
2 -47 9 -5 7 -8 8 -8 1 0 -7 -73 -10 -237 -10 -171 1 -240 -2 -252 -11 -9 -7
-11 -13 -4 -13 10 0 11 -22 3 -55 -1 -5 -1 -12 0 -15 8 -19 3 -320 -5 -320 -7
0 -7 -3 0 -8 6 -4 10 -69 10 -157 0 -88 -4 -153 -10 -157 -7 -5 -7 -8 0 -8 6
0 9 -51 7 -137 -1 -76 -2 -144 -2 -150 0 -25 0 -103 0 -115 0 -7 1 -41 3 -75
2 -35 0 -63 -5 -63 -5 0 -6 -5 -2 -12 11 -18 10 -238 -1 -238 -6 0 -6 -3 1 -8
5 -4 9 -23 7 -42 -4 -45 -4 -43 0 -117 2 -35 0 -63 -5 -63 -5 0 -5 -8 0 -17 4
-10 6 -58 5 -108 -4 -108 -3 -75 0 -278 1 -106 -2 -167 -8 -167 -7 0 -7 -3 0
-8 6 -4 10 -69 10 -157 0 -88 -4 -153 -10 -157 -7 -5 -7 -8 0 -8 6 0 9 -51 7
-137 -1 -76 -2 -144 -2 -150 0 -25 0 -103 0 -115 0 -7 1 -41 3 -75 2 -35 0
-63 -5 -63 -5 0 -6 -5 -2 -12 11 -18 10 -238 -1 -238 -6 0 -6 -3 0 -8 13 -8
13 -82 0 -101 -5 -9 -4 -12 3 -7 11 7 11 -39 -1 -50 -3 -3 -2 -16 3 -29 5 -13
6 -26 3 -29 -4 -3 14 -6 38 -7 24 0 68 -1 97 -2 29 -1 52 2 52 8 0 7 3 7 8 0
8 -12 162 -14 162 -2 0 5 5 5 12 1 18 -12 58 -11 58 1 0 6 3 7 8 0 4 -5 30
-10 57 -10 28 0 53 5 57 10 5 7 8 7 8 0 0 -5 25 -10 55 -10 30 0 55 5 55 10 0
7 3 7 8 0 4 -5 30 -10 57 -10 28 0 53 5 57 10 5 7 8 7 8 0 0 -5 23 -10 50 -10
28 0 50 4 50 8 0 5 5 5 10 2 18 -11 480 -11 480 0 0 7 3 7 8 0 4 -5 30 -10 57
-10 28 0 53 5 57 10 5 7 8 7 8 0 0 -5 25 -10 55 -10 30 0 55 5 55 10 0 7 3 7
8 0 4 -5 30 -10 57 -10 28 0 53 5 57 10 5 7 8 7 8 0 0 -5 23 -10 50 -10 28 0
50 4 50 8 0 5 5 5 10 2 18 -11 480 -11 480 0 0 7 3 7 8 0 4 -5 31 -10 60 -10
28 0 52 5 52 10 0 7 3 7 8 0 4 -5 30 -10 57 -10 28 0 53 5 57 10 5 7 8 7 8 0
0 -6 35 -9 89 -8 l88 2 -3 -31 c-2 -17 2 -38 9 -46 8 -11 8 -14 0 -9 -15 10
-15 -52 1 -72 8 -11 8 -13 0 -8 -7 4 -15 0 -18 -9 -3 -9 -2 -12 4 -9 7 4 9 -5
5 -24 -3 -16 0 -33 5 -36 7 -5 8 -11 1 -19 -5 -6 -9 -36 -7 -66 2 -30 -1 -65
-6 -78 -4 -13 -4 -21 1 -18 5 3 7 -22 5 -56 -2 -38 2 -68 9 -77 9 -11 9 -13 0
-8 -14 9 -15 -52 -1 -70 5 -7 6 -18 1 -25 -12 -19 -12 -158 0 -151 6 4 7 1 1
-8 -13 -21 -14 -201 0 -218 8 -11 8 -13 -1 -8 -15 10 -15 -52 1 -72 8 -11 8
-13 0 -8 -7 4 -15 0 -18 -9 -3 -9 -2 -12 4 -9 7 4 9 -5 5 -24 -3 -16 0 -33 5
-36 7 -5 8 -11 1 -19 -5 -6 -9 -36 -7 -66 2 -30 -1 -65 -6 -78 -4 -13 -4 -21
1 -18 5 3 7 -22 5 -56 -2 -38 2 -68 9 -77 9 -11 9 -13 0 -8 -14 9 -15 -52 -1
-70 5 -7 6 -18 1 -25 -12 -19 -12 -158 0 -151 6 4 7 1 1 -8 -13 -21 -14 -201
0 -218 8 -11 8 -13 -1 -8 -15 10 -15 -52 1 -72 8 -11 8 -13 0 -8 -7 4 -15 0
-18 -9 -3 -9 -2 -12 4 -9 7 4 9 -5 5 -24 -3 -16 0 -33 5 -36 7 -5 8 -11 1 -19
-5 -6 -9 -36 -7 -66 2 -30 -1 -65 -6 -78 -4 -13 -4 -21 1 -18 5 3 7 -22 5 -56
-2 -38 2 -68 9 -77 9 -11 9 -13 0 -8 -14 9 -15 -52 -1 -70 5 -7 6 -18 1 -25
-12 -19 -12 -158 0 -151 6 4 7 1 1 -8 -14 -21 -14 -281 0 -298 8 -11 8 -13 0
-8 -7 4 -15 0 -18 -9 -3 -8 -2 -13 3 -10 5 3 7 -24 5 -62 -6 -94 -9 -116 -18
-131 -5 -8 -3 -17 5 -22 8 -5 10 -9 4 -9 -5 0 -10 -17 -9 -37 1 -50 -6 -74
-20 -66 -8 5 -8 3 0 -8 13 -16 8 -82 -6 -87 -6 -2 -6 -10 0 -21 6 -12 5 -24
-5 -38 -8 -11 -12 -30 -10 -42 2 -13 -2 -24 -11 -28 -11 -4 -12 -9 -3 -19 8
-9 8 -14 1 -14 -6 0 -9 -9 -7 -20 2 -11 0 -18 -4 -15 -5 2 -12 -15 -15 -40 -4
-25 -12 -45 -18 -45 -6 0 -8 -9 -5 -19 3 -11 -1 -22 -9 -25 -8 -3 -11 -12 -7
-22 4 -12 3 -15 -6 -10 -8 6 -11 2 -9 -10 2 -11 -2 -18 -8 -17 -8 1 -10 -6 -6
-19 3 -14 1 -19 -6 -14 -8 5 -12 -1 -12 -14 0 -13 -4 -19 -12 -14 -7 5 -8 3
-4 -5 5 -7 0 -19 -10 -27 -11 -9 -12 -12 -4 -8 8 5 4 -6 -10 -23 -14 -17 -28
-29 -32 -26 -4 2 -5 -3 -2 -11 3 -9 -5 -21 -20 -31 -14 -10 -26 -24 -26 -32 0
-8 -4 -11 -10 -8 -5 3 -10 -1 -10 -9 0 -9 -6 -16 -14 -16 -8 0 -18 -5 -22 -12
-5 -7 -3 -8 6 -3 9 5 11 4 6 -3 -4 -7 -13 -12 -19 -12 -7 0 -21 -11 -31 -25
-10 -14 -23 -25 -29 -25 -5 0 -16 -8 -24 -18 -8 -9 -11 -11 -8 -4 6 11 3 11
-14 0 -12 -7 -21 -16 -21 -20 0 -4 -7 -4 -17 -1 -11 4 -14 3 -9 -5 6 -11 -5
-17 -26 -13 -5 0 -8 -3 -8 -9 0 -6 -6 -9 -12 -8 -7 2 -12 -3 -10 -11 2 -11 0
-12 -11 -2 -12 9 -16 8 -20 -4 -4 -8 -13 -12 -22 -9 -8 3 -15 2 -15 -4 0 -6
-11 -9 -25 -7 -15 1 -25 -3 -25 -11 0 -8 -9 -11 -25 -8 -14 2 -25 0 -25 -6 0
-7 -12 -9 -30 -6 -17 2 -28 0 -24 -5 3 -5 -4 -10 -15 -10 -20 -1 -32 -4 -48
-9 -5 -1 -16 -1 -26 0 -10 1 -25 -4 -33 -10 -10 -9 -14 -9 -14 -1 0 8 -5 9
-19 2 -10 -6 -21 -7 -25 -4 -9 9 -56 10 -56 1 0 -4 -7 -5 -15 -2 -8 4 -15 2
-15 -3 0 -6 -18 -7 -44 -3 -24 3 -52 5 -62 4 -26 -4 -55 -5 -223 -5 -83 0
-152 -4 -163 -10 -11 -6 -18 -7 -15 -2 9 14 -246 12 -255 -2 -5 -6 -8 -6 -8 2
0 13 -39 14 -57 1 -6 -5 -14 -5 -18 2 -3 6 -12 7 -18 3 -7 -4 -79 -8 -160 -10
-82 -1 -152 -5 -157 -8 -5 -3 -11 -1 -15 5 -4 6 -10 8 -14 6 -4 -3 -40 -6 -79
-7 -40 -1 -72 -6 -72 -12 0 -5 -7 -4 -15 3 -12 10 -15 10 -15 0 0 -9 -4 -9
-13 -2 -8 7 -18 7 -27 2 -21 -14 -32 -12 -24 3 6 9 4 9 -7 1 -8 -6 -61 -10
-130 -9 l-116 1 1 -148 c1 -90 -3 -150 -9 -152 -7 -3 -7 -5 0 -5 6 -1 9 -52 7
-138 -1 -76 -2 -144 -2 -150 0 -25 0 -103 0 -115 0 -7 1 -41 3 -75 2 -35 0
-63 -5 -63 -5 0 -6 -5 -2 -12 11 -18 10 -238 -1 -238 -6 0 -6 -3 1 -8 5 -4 9
-23 7 -42 -4 -45 -4 -43 0 -118 2 -34 0 -62 -5 -62 -5 0 -5 -8 0 -17 4 -10 6
-58 5 -108 -4 -108 -3 -75 0 -278 1 -106 -2 -167 -8 -167 -7 0 -7 -3 0 -8 6
-4 10 -69 10 -157 0 -88 -4 -153 -10 -157 -7 -5 -7 -8 0 -8 6 0 9 -51 7 -137
-1 -76 -2 -144 -2 -150 0 -25 0 -103 0 -115 0 -7 1 -41 3 -75 2 -35 0 -63 -5
-63 -5 0 -6 -5 -2 -12 11 -18 10 -238 -1 -238 -6 0 -6 -3 1 -8 5 -4 9 -23 7
-42 -4 -45 -4 -43 0 -118 2 -34 0 -62 -5 -62 -5 0 -5 -8 0 -17 4 -10 6 -58 5
-108 -4 -108 -3 -83 0 -234 1 -96 5 -125 16 -129 8 -3 11 0 8 5 -3 5 16 6 49
3 30 -3 54 -3 54 0 0 3 9 6 19 6 11 0 17 -4 15 -8 -3 -4 0 -8 5 -8 6 0 11 5
11 10 0 7 6 8 16 2 9 -5 33 -6 55 -2 21 4 36 3 33 -1 -3 -5 0 -9 5 -9 6 0 11
5 11 11 0 5 5 7 11 4 15 -10 79 -12 79 -3 0 3 14 3 30 -2 19 -5 30 -5 30 1 0
6 8 5 20 -1 14 -8 20 -8 20 0 0 6 5 8 12 4 16 -10 68 -11 68 -1 0 4 9 3 20 -3
14 -8 20 -8 20 0 0 8 6 8 20 0 14 -8 20 -8 20 0 0 6 5 8 12 4 17 -11 62 -11
69 0 4 5 13 5 20 0 21 -14 310 -13 302 0 -5 8 -3 8 8 0 16 -12 787 -14 806 -1
6 4 15 2 19 -4 4 -8 9 -7 15 2 6 10 9 11 9 2 0 -7 5 -13 11 -13 5 0 8 3 5 8
-2 4 25 5 60 2 35 -3 64 -3 64 0 0 3 9 6 19 6 11 0 17 -4 15 -8 -3 -4 0 -8 5
-8 6 0 11 5 11 10 0 7 6 8 16 2 9 -5 33 -6 55 -2 21 4 36 3 33 -1 -3 -5 0 -9
5 -9 6 0 11 5 11 11 0 5 5 7 11 4 15 -10 79 -12 79 -3 0 3 14 3 30 -2 19 -5
30 -5 30 1 0 6 8 5 20 -1 14 -8 20 -8 20 0 0 6 5 8 12 4 16 -10 68 -11 68 -1
0 4 9 3 20 -3 14 -8 20 -8 20 0 0 8 6 8 20 0 14 -8 20 -8 20 0 0 6 5 8 12 4
16 -10 68 -11 68 -1 0 4 5 7 11 7 5 0 8 -3 6 -7 -3 -5 15 -8 39 -8 24 0 44 2
44 5 0 3 52 5 116 5 64 0 118 4 121 8 3 4 11 3 18 -3 8 -7 15 -7 19 -1 4 6 18
6 35 1 16 -4 32 -5 36 -2 3 4 47 8 98 9 82 2 182 9 182 13 0 1 17 2 38 3 20 1
37 -2 37 -6 0 -5 6 -5 13 0 6 4 23 9 37 9 14 1 25 3 25 4 0 4 92 11 171 13 44
1 70 6 67 12 -4 13 66 14 85 2 7 -5 11 -5 10 0 -2 4 -1 8 2 9 3 0 14 6 26 12
12 6 25 7 30 2 5 -5 24 -1 46 10 25 12 40 14 47 7 6 -6 15 -7 23 -1 7 6 29 11
48 13 19 2 40 7 46 12 6 5 21 7 34 4 14 -3 28 2 36 13 9 11 13 13 14 4 0 -9 5
-10 19 -2 14 7 21 6 24 -3 4 -9 6 -9 6 1 1 7 6 10 11 7 6 -3 10 -2 10 2 0 5
12 10 28 11 15 1 28 6 30 11 2 5 15 6 32 1 21 -6 30 -5 34 6 3 8 16 14 30 14
14 0 27 4 30 9 3 5 15 7 26 4 11 -3 20 -1 20 5 0 5 13 8 30 7 16 -1 28 1 25 5
-5 7 37 19 80 22 11 1 26 9 33 17 11 13 12 13 6 1 -7 -12 -5 -13 8 -3 8 7 18
10 21 6 4 -3 7 -1 7 6 0 7 7 11 15 8 8 -4 17 -2 20 3 4 6 17 10 31 10 13 0 24
4 24 10 0 5 3 9 8 9 21 -4 43 2 38 10 -3 4 6 7 19 5 14 -1 25 2 25 8 0 6 7 8
15 4 8 -3 15 -1 15 5 0 6 5 7 10 4 6 -3 10 -1 10 5 0 6 4 9 9 5 5 -3 16 1 24
9 11 11 17 12 27 3 10 -9 11 -9 5 2 -6 11 -4 13 8 8 10 -3 17 -3 17 1 0 4 11
12 25 19 19 8 24 8 19 0 -3 -7 1 -4 9 6 11 14 16 15 20 5 3 -8 6 -6 6 5 1 13
7 17 24 15 12 -2 21 2 20 8 -1 8 6 10 19 6 14 -3 19 -1 14 6 -4 7 1 10 14 7
11 -2 20 0 20 6 0 5 9 9 19 9 11 0 23 5 26 10 4 6 11 8 16 5 5 -4 6 2 2 12 -3
10 -3 15 2 11 4 -4 14 -3 22 4 11 9 12 7 7 -8 -5 -15 -3 -14 10 4 10 12 26 22
37 22 11 0 22 6 25 14 3 8 16 13 29 11 14 -1 23 1 20 4 -2 4 5 13 17 20 16 10
19 10 13 -1 -3 -7 1 -4 10 7 9 11 19 20 23 20 4 1 18 7 32 15 14 8 30 15 35
15 6 1 9 6 8 12 -1 6 6 9 19 5 14 -3 19 -1 14 6 -4 7 -2 12 5 12 7 0 21 8 32
17 15 13 19 14 13 3 -4 -8 0 -6 8 4 9 11 16 17 16 13 0 -4 9 -3 20 3 11 6 20
17 20 26 0 11 4 12 19 4 17 -9 19 -7 16 10 -2 11 0 18 6 15 5 -4 9 -1 9 6 0 8
4 8 15 -1 12 -10 15 -9 15 4 0 10 3 15 8 13 8 -5 33 18 27 25 -2 2 6 10 18 17
21 13 21 13 8 -5 -8 -10 0 -4 18 14 18 17 36 32 42 32 10 0 28 13 59 44 11 11
20 16 20 12 0 -5 9 3 21 18 11 14 24 24 29 21 4 -3 11 2 14 11 3 8 11 12 17 8
8 -4 9 -3 5 4 -4 7 -2 12 4 12 6 0 8 5 4 12 -4 7 -3 8 5 4 11 -7 44 17 35 27
-3 2 6 7 19 11 13 3 29 17 35 31 7 15 17 23 22 20 6 -3 10 1 10 9 0 8 4 18 10
21 6 4 7 -1 4 -12 -3 -10 2 -6 13 9 10 15 29 35 41 46 12 10 18 23 14 27 -4 5
1 5 11 2 15 -6 22 3 18 25 0 4 7 4 17 1 9 -3 14 -3 10 1 -7 8 36 55 69 76 17
11 16 11 -2 5 -14 -4 -9 4 15 25 19 18 34 36 33 41 -2 5 3 9 11 9 8 0 18 5 22
12 5 7 3 8 -6 3 -9 -6 -11 -4 -6 4 5 7 14 10 22 7 7 -3 16 0 20 6 4 7 3 8 -4
4 -7 -4 -12 -2 -12 4 0 6 7 13 15 16 8 4 15 13 15 20 0 8 7 17 15 20 8 4 12
11 8 17 -4 6 0 8 10 4 9 -3 16 -3 16 1 -4 22 2 42 11 37 6 -3 10 1 10 10 0 10
5 13 12 9 6 -4 8 -3 4 4 -3 6 -2 13 4 17 6 4 8 10 5 15 -3 5 4 14 15 20 11 6
20 17 20 25 0 8 3 14 8 12 4 -1 8 1 9 6 6 22 38 65 45 61 5 -3 11 8 14 25 4
17 11 31 16 31 5 0 6 5 2 12 -5 8 -2 9 10 5 9 -4 15 -3 11 2 -3 6 3 15 12 21
17 11 16 11 -1 5 -19 -6 -19 -5 -3 13 9 10 17 22 17 27 0 4 8 14 18 22 9 8 11
11 3 7 -8 -4 -2 9 13 29 15 20 25 41 21 47 -4 6 -1 9 7 8 7 -2 12 3 11 9 -2 7
2 13 8 13 5 0 8 4 4 9 -3 5 -1 12 5 16 6 4 8 11 5 16 -4 5 -2 9 2 9 6 0 40 62
48 90 7 22 18 39 24 36 3 -2 7 10 8 27 1 17 8 34 15 39 7 4 9 8 3 8 -5 0 -1 7
10 16 17 13 18 16 5 24 -14 9 -7 14 13 11 5 -1 6 3 3 8 -4 5 -2 12 4 16 5 3
10 17 10 30 0 13 5 27 11 30 6 4 8 13 5 21 -3 9 1 14 12 15 10 0 12 3 5 6 -10
3 -9 10 2 26 8 12 15 26 17 32 2 5 6 9 10 8 4 -2 3 8 -2 22 -8 20 -6 25 7 25
9 0 13 3 10 7 -4 3 -1 13 6 21 10 13 9 14 -2 7 -11 -6 -12 -5 -5 6 9 15 11 20
13 45 0 8 6 12 11 9 7 -4 9 3 6 19 -3 17 1 29 12 36 13 7 13 9 3 10 -11 0 -10
5 5 21 15 17 16 23 5 41 -7 11 -8 17 -2 13 6 -3 11 0 11 9 0 8 6 17 13 19 9 4
9 6 0 6 -9 1 -8 8 2 27 7 15 11 33 8 42 -5 11 -3 13 8 7 12 -8 12 -6 0 8 -9
11 -10 17 -2 17 6 0 11 11 11 24 0 14 4 27 9 30 4 3 8 16 7 28 -1 13 4 31 12
41 9 10 11 17 4 17 -13 0 5 61 22 72 8 5 8 8 -1 8 -9 0 -11 19 -3 40 1 3 2 8
1 13 0 4 3 7 8 7 4 0 7 12 5 27 -1 15 0 32 4 38 4 5 8 26 10 45 4 56 5 60 12
60 4 0 7 7 7 15 0 8 -4 15 -9 15 -5 0 -6 6 -1 13 8 13 10 18 12 43 1 9 6 12
14 8 9 -6 9 -4 1 7 -12 16 -12 29 0 48 6 10 5 12 -2 7 -8 -5 -8 3 1 26 7 18
12 52 12 76 -1 23 2 42 5 42 3 0 6 27 7 59 1 33 7 69 13 80 8 15 8 21 0 21 -7
0 -8 6 -1 17 5 10 5 26 0 41 -5 13 -5 21 -1 18 8 -5 14 36 15 97 0 15 4 27 9
27 4 0 3 9 -4 20 -10 16 -10 24 0 40 9 15 10 26 2 40 -7 13 -7 21 2 26 7 5 8
3 3 -6 -5 -8 -4 -11 2 -7 5 4 7 27 3 57 -4 28 -4 53 0 55 7 4 4 81 -4 102 -3
8 -2 11 3 8 6 -3 9 16 7 45 -1 28 0 53 3 56 10 9 10 38 0 50 -6 7 -6 15 -1 18
5 3 8 75 8 161 -1 86 2 159 7 162 4 2 4 10 0 16 -10 16 -10 218 0 224 4 2 4
10 0 16 -10 16 -10 1578 0 1584 4 2 4 10 0 16 -10 16 -10 218 0 224 4 2 4 10
0 16 -10 16 -10 218 0 224 4 2 4 10 0 16 -10 16 -10 218 0 224 4 2 4 10 0 16
-10 17 -11 210 0 224 4 6 4 13 0 16 -4 3 -8 112 -8 244 l1 238 29 0 c17 0 33
5 37 10 5 7 8 7 8 0 0 -5 23 -10 50 -10 28 0 50 4 50 8 0 5 5 5 10 2 18 -11
480 -11 480 0 0 7 3 7 8 0 4 -5 30 -10 57 -10 28 0 53 5 57 10 5 7 8 7 8 0 0
-5 25 -10 55 -10 30 0 55 5 55 10 0 7 3 7 8 0 4 -5 30 -10 57 -10 28 0 53 5
57 10 5 7 8 7 8 0 0 -5 23 -10 50 -10 28 0 50 4 50 8 0 5 5 5 10 2 18 -11 480
-11 480 0 0 7 3 7 8 0 10 -15 81 -12 87 3 3 8 0 10 -8 6 -8 -5 -7 -2 2 9 7 9
10 17 5 17 -5 0 -8 15 -7 32 1 18 2 33 3 33 1 0 3 8 5 18 2 9 0 17 -4 17 -4 0
-7 9 -7 20 0 11 3 20 6 20 3 0 6 14 5 30 0 16 -3 30 -7 30 -4 0 -3 11 2 25 7
17 6 25 -1 25 -8 0 -7 5 1 15 8 10 9 15 1 15 -7 0 -8 8 -1 25 6 16 6 25 -1 25
-6 0 -6 6 0 18 7 13 6 23 -2 32 -9 10 -9 11 1 6 6 -4 12 -2 12 3 0 6 -5 11
-12 11 -9 0 -9 3 0 12 7 7 8 17 1 30 -5 10 -6 18 -1 18 4 0 8 14 7 30 0 17 -3
30 -7 30 -4 0 -3 11 2 25 7 17 6 25 -1 25 -8 0 -7 5 1 15 8 10 9 15 1 15 -7 0
-8 8 -1 25 6 16 6 25 -1 25 -6 0 -6 6 0 18 7 13 6 23 -2 32 -9 10 -9 11 1 6 6
-4 12 -2 12 3 0 6 -5 11 -12 11 -9 0 -9 3 0 12 7 7 8 17 1 30 -5 10 -6 18 -1
18 4 0 8 14 7 30 0 16 -3 30 -7 30 -4 0 -3 11 2 25 7 17 6 25 -1 25 -8 0 -7 5
1 15 8 10 9 15 1 15 -7 0 -8 8 -1 25 6 16 6 25 -1 25 -6 0 -6 6 0 18 7 13 6
23 -2 32 -9 10 -9 11 1 6 6 -4 12 -2 12 3 0 6 -5 11 -12 11 -9 0 -9 3 0 12 7
7 8 17 1 30 -5 10 -6 18 -1 18 4 0 8 14 7 30 0 16 -3 30 -7 30 -4 0 -3 11 2
25 7 17 6 25 -1 25 -8 0 -7 5 1 15 8 10 9 15 1 15 -7 0 -8 8 -1 25 6 16 6 25
-1 25 -6 0 -6 6 0 18 7 13 6 23 -2 32 -9 10 -9 11 1 6 6 -4 12 -2 12 3 0 6 -5
11 -12 11 -9 0 -9 3 0 12 7 7 8 17 1 30 -5 10 -6 18 -1 18 4 0 8 14 7 30 0 17
-3 30 -7 30 -4 0 -3 11 2 25 6 16 6 25 -1 25 -6 0 -5 8 2 22 9 17 9 23 0 26
-9 3 -9 8 1 20 7 9 8 13 2 9 -6 -3 -11 0 -11 8 0 8 4 12 9 9 12 -8 6 29 -6 37
-5 4 -5 13 0 20 12 20 14 39 3 39 -5 0 -4 11 1 25 6 16 6 25 -1 25 -6 0 -6 6
0 18 7 13 6 23 -2 32 -9 10 -9 11 1 6 6 -4 12 -2 12 3 0 6 -5 11 -12 11 -9 0
-9 3 0 12 7 7 8 17 1 30 -6 11 -6 18 0 18 11 0 9 19 -3 39 -6 10 -5 12 2 7 7
-4 12 -2 12 3 0 6 -4 11 -10 11 -6 0 -6 9 0 25 6 16 6 25 -1 25 -6 0 -5 8 2
22 9 17 9 23 0 26 -9 3 -9 8 1 20 7 9 8 13 2 9 -6 -3 -11 0 -11 8 0 8 4 12 9
9 12 -8 6 29 -6 37 -5 4 -5 13 0 20 11 19 13 49 2 49 -5 0 -4 10 3 21 6 12 7
24 3 28 -11 7 -15 41 -5 41 4 0 6 16 6 35 0 19 -4 35 -8 35 -4 0 -3 10 4 21 6
12 7 24 3 28 -11 7 -15 41 -5 41 3 0 6 18 7 40 0 22 -4 40 -9 40 -5 0 -3 8 4
17 8 9 9 14 3 10 -6 -3 -11 0 -11 8 0 8 4 12 9 9 12 -8 6 29 -6 37 -5 4 -5 13
0 20 12 20 14 39 3 39 -5 0 -4 11 1 25 6 16 6 25 -1 25 -6 0 -6 6 0 18 7 13 6
23 -2 32 -9 10 -9 11 1 6 6 -4 12 -2 12 3 0 6 -5 11 -12 11 -9 0 -9 3 0 12 7
7 8 17 1 30 -6 11 -6 18 0 18 11 0 9 19 -3 39 -6 10 -5 12 2 7 7 -4 12 -2 12
3 0 6 -4 11 -10 11 -6 0 -6 9 0 25 6 16 6 25 -1 25 -6 0 -5 8 2 22 9 17 9 23
0 26 -9 3 -9 8 1 20 7 9 8 13 2 9 -6 -3 -11 0 -11 8 0 8 4 12 9 9 12 -8 6 29
-6 37 -5 4 -5 13 0 20 11 19 13 49 2 49 -5 0 -4 10 3 21 6 12 7 24 3 28 -11 7
-15 41 -5 41 4 0 6 16 6 35 0 19 -4 35 -8 35 -4 0 -3 10 4 21 6 12 7 24 3 28
-11 7 -15 41 -5 41 3 0 6 18 7 40 0 22 -4 40 -9 40 -5 0 -4 6 2 14 9 10 9 16
1 21 -8 5 -7 11 2 23 10 12 10 16 1 19 -7 3 -13 9 -13 14 0 6 3 8 8 6 4 -3 8
6 8 19 1 16 -4 24 -15 25 -87 5 -454 2 -458 -4 -2 -4 -10 -4 -16 0 -20 13 -47
13 -47 2 0 -8 -4 -8 -12 -2 -7 5 -59 9 -116 8 -56 -1 -105 2 -108 6 -3 5 -11
9 -17 9 -7 0 -6 -4 3 -11 11 -7 2 -9 -33 -6 -26 2 -50 0 -53 -5 -3 -5 -11 -5
-17 0 -7 5 -30 7 -52 6 -23 -2 -43 2 -47 9 -5 8 -8 8 -8 1 0 -8 -66 -11 -216
-10 -119 1 -218 -2 -221 -7 -2 -4 -10 -4 -16 0 -20 13 -47 13 -47 2 0 -8 -4
-8 -12 -2 -7 5 -58 9 -113 8 l-100 -2 0 98 c-1 59 3 95 9 92 5 -4 6 -1 1 8
-11 17 -13 249 -2 256 4 2 4 10 0 16 -10 16 -10 218 0 224 4 2 4 10 0 16 -10
16 -10 218 0 224 4 2 4 10 0 16 -10 16 -10 1578 0 1584 4 2 4 10 0 16 -10 17
-11 210 0 224 4 6 4 14 0 16 -5 3 -8 27 -8 54 1 38 -2 49 -14 50 -9 1 -30 2
-48 4 -20 1 -30 6 -26 13 4 6 0 5 -9 -2 -12 -10 -18 -10 -23 -2 -4 7 -18 10
-31 7 -13 -2 -24 -1 -24 2 0 4 -8 7 -17 8 -10 1 -33 4 -52 8 -26 5 -32 4 -26
-7 3 -7 1 -6 -7 3 -7 9 -18 14 -25 12 -6 -2 -14 1 -18 7 -5 8 -11 8 -21 -1
-11 -9 -14 -9 -14 0 0 7 -4 10 -9 6 -5 -3 -17 2 -25 11 -9 8 -16 11 -16 5 0
-8 -39 -8 -60 -1 -3 2 -9 2 -14 1 -4 -1 -14 4 -22 10 -8 6 -14 7 -14 2 0 -6
-11 -8 -25 -5 -14 2 -25 7 -25 11 0 3 -19 7 -41 8 -23 2 -48 8 -55 14 -11 9
-14 9 -14 0 0 -8 -5 -9 -19 -2 -10 6 -21 8 -24 4 -4 -3 -12 -2 -19 4 -7 5 -23
8 -35 7 -13 0 -23 4 -23 10 0 6 -4 6 -9 -2 -7 -11 -10 -11 -22 0 -8 7 -32 14
-54 15 -22 1 -56 5 -75 8 -19 3 -47 7 -62 8 -16 1 -28 4 -28 7 0 6 -17 9 -75
12 -19 1 -35 6 -35 11 0 4 -4 6 -9 3 -5 -4 -21 -2 -35 4 -15 5 -26 6 -26 0 0
-5 -11 -3 -25 4 -13 7 -41 12 -62 12 -21 -1 -44 5 -51 11 -16 15 -36 17 -27 3
3 -5 -11 -4 -32 3 -21 7 -49 13 -63 12 -14 0 -30 6 -37 15 -11 13 -12 13 -13
0 0 -13 -1 -13 -10 0 -6 9 -10 10 -10 3 0 -8 -10 -9 -37 -1 -21 6 -49 12 -63
14 -36 4 -68 12 -80 19 -6 3 -10 0 -10 -7 0 -8 -3 -9 -8 -3 -10 13 -30 19 -70
17 -18 0 -30 3 -27 8 3 6 -1 7 -10 3 -10 -3 -21 0 -26 8 -7 11 -9 11 -9 1 0
-7 -4 -11 -8 -8 -13 8 -65 18 -90 17 -13 0 -21 3 -18 7 2 4 -16 7 -40 6 -24
-1 -44 2 -44 7 0 4 -9 6 -20 4 -11 -2 -22 0 -25 5 -3 5 -14 7 -25 5 -11 -2
-22 0 -25 5 -3 5 -13 6 -21 3 -9 -3 -20 0 -25 8 -8 12 -11 12 -19 -1 -8 -12
-10 -12 -10 -1 0 11 -3 11 -15 1 -11 -9 -15 -9 -15 -1 0 7 -4 9 -10 6 -5 -3
-10 -2 -10 3 0 5 -18 9 -41 9 -22 0 -44 4 -47 9 -8 11 -42 11 -59 1 -6 -4 -13
-2 -15 4 -2 5 -22 12 -45 13 -22 2 -45 6 -51 10 -6 3 -29 7 -51 8 -23 1 -41 5
-41 9 0 4 -12 7 -27 5 -16 -1 -43 3 -60 10 -20 8 -35 9 -38 3 -4 -5 -18 -3
-34 6 -16 8 -41 12 -56 9 -15 -3 -32 -1 -39 4 -11 10 -77 21 -133 24 -18 1
-33 5 -33 10 0 5 -4 6 -10 3 -5 -3 -16 -3 -22 2 -19 11 -38 12 -38 2 0 -5 -11
-2 -25 7 -14 9 -28 14 -32 10 -3 -3 -13 0 -21 7 -13 9 -14 9 -8 0 10 -17 -5
-16 -31 2 -16 12 -22 12 -26 2 -3 -6 -6 -7 -6 -1 -1 6 -14 9 -31 6 -17 -2 -30
0 -30 6 0 6 -11 9 -24 8 -13 -2 -40 2 -59 9 -25 9 -39 9 -46 2 -8 -8 -11 -8
-11 1 0 6 -7 9 -15 6 -8 -4 -15 -2 -15 3 0 5 -12 8 -27 7 -16 -1 -34 4 -42 10
-12 9 -13 8 -6 -4 5 -9 0 -8 -13 4 -17 14 -22 16 -22 5 0 -8 -3 -10 -8 -4 -4
6 -22 10 -39 10 -18 -1 -33 2 -33 6 0 3 -19 6 -42 7 -24 1 -45 7 -46 12 -3 7
-9 7 -18 -1 -9 -8 -14 -8 -14 -1 0 6 -9 9 -20 7 -11 -2 -26 3 -34 11 -9 8 -16
10 -18 3 -2 -7 -13 -6 -33 2 -17 6 -43 11 -58 10 -15 -2 -35 3 -44 11 -14 11
-16 11 -8 -2 7 -12 6 -13 -7 -3 -8 7 -29 11 -46 9 -18 -2 -32 0 -32 4 0 4 -9
10 -20 13 -13 3 -18 1 -13 -5 3 -7 1 -8 -6 -4 -7 5 -24 10 -39 12 -60 10 -71
12 -81 19 -6 3 -11 0 -11 -7 -1 -10 -4 -9 -13 2 -7 8 -25 16 -42 16 -59 3
-140 17 -152 27 -9 6 -13 6 -13 -2 0 -7 -5 -9 -12 -4 -15 9 -31 12 -73 16 -16
1 -35 6 -41 9 -7 5 -10 -19 -10 -75z"/>
<path d="M11541 16199 c-14 -5 -30 -8 -37 -5 -6 2 -17 -1 -24 -7 -10 -9 -11
-9 -5 3 8 13 6 13 -8 2 -9 -8 -20 -11 -26 -8 -5 3 -11 0 -14 -6 -3 -10 -8 -10
-21 1 -14 12 -17 12 -14 1 2 -10 -9 -14 -37 -15 -22 -1 -47 -5 -56 -9 -9 -4
-20 -6 -25 -5 -5 1 -11 0 -14 -1 -7 -3 -50 -9 -90 -14 -19 -2 -42 -6 -50 -9
-34 -12 -70 -13 -74 -3 -3 7 -5 7 -5 -1 -1 -7 -7 -13 -15 -13 -8 0 -17 -6 -19
-12 -4 -9 -6 -9 -6 -2 -1 12 -56 5 -80 -10 -6 -4 -11 -2 -11 5 0 8 -4 8 -15
-1 -8 -7 -26 -10 -40 -8 -17 4 -29 0 -35 -11 -6 -10 -10 -11 -10 -3 0 9 -5 10
-19 3 -10 -6 -21 -7 -25 -4 -3 3 -6 2 -6 -3 0 -5 -18 -8 -40 -8 -23 1 -47 -4
-54 -12 -11 -11 -16 -11 -20 -1 -5 9 -7 9 -12 -1 -5 -10 -9 -10 -20 -1 -11 9
-14 9 -14 0 0 -7 -4 -9 -10 -6 -5 3 -10 3 -10 -2 0 -4 -13 -8 -30 -8 -16 -1
-30 3 -30 8 0 5 -7 1 -16 -7 -8 -9 -19 -14 -24 -11 -5 3 -12 0 -16 -6 -5 -8
-8 -8 -14 0 -5 9 -14 8 -35 -3 -15 -8 -34 -12 -41 -9 -8 3 -22 -1 -31 -8 -14
-12 -16 -12 -8 1 7 12 6 13 -6 4 -8 -7 -33 -11 -56 -10 -23 1 -41 -2 -40 -8 1
-5 -14 -9 -33 -9 -19 0 -41 -4 -47 -9 -7 -6 -13 -7 -13 -3 0 4 -6 2 -14 -4 -9
-8 -16 -8 -20 -2 -4 6 -21 5 -46 -4 -29 -10 -40 -11 -44 -2 -3 8 -5 8 -5 -1
-1 -7 -5 -10 -11 -7 -5 3 -10 2 -10 -4 0 -6 -7 -8 -15 -5 -8 4 -15 1 -15 -5 0
-9 -5 -9 -21 0 -17 8 -23 8 -29 -1 -4 -7 -12 -10 -18 -6 -6 3 -13 2 -17 -4 -4
-6 -13 -7 -23 -1 -12 6 -29 3 -54 -9 -25 -12 -40 -14 -47 -7 -7 7 -15 6 -26
-3 -8 -7 -33 -12 -55 -12 -22 0 -40 -3 -40 -8 0 -4 -16 -7 -35 -6 -19 1 -35
-2 -35 -6 0 -5 -5 -8 -11 -8 -5 0 -7 6 -3 13 5 8 2 7 -9 -2 -17 -13 -33 -17
-85 -20 -14 0 -21 -5 -16 -12 4 -8 0 -8 -15 0 -11 7 -21 8 -21 4 0 -8 -28 -12
-79 -13 -13 0 -29 -4 -35 -9 -6 -5 -29 -8 -51 -8 -22 1 -46 -4 -54 -11 -10
-10 -16 -11 -21 -2 -6 9 -9 9 -14 1 -4 -6 -12 -9 -17 -5 -5 3 -16 0 -24 -6 -8
-7 -15 -9 -15 -5 0 4 -7 1 -17 -6 -13 -11 -17 -11 -20 -2 -3 9 -10 10 -22 3
-10 -5 -21 -6 -25 -3 -3 3 -6 2 -6 -3 0 -5 -19 -9 -42 -9 -24 0 -42 -5 -41
-10 1 -6 -10 -10 -23 -10 -13 0 -24 4 -24 9 0 5 -7 3 -15 -4 -8 -6 -19 -9 -25
-5 -5 3 -10 1 -10 -4 0 -6 -5 -11 -11 -11 -5 0 -7 6 -3 13 5 9 4 9 -6 0 -7 -6
-19 -9 -26 -6 -8 3 -14 1 -14 -5 0 -5 -11 -8 -25 -7 -14 2 -25 -1 -25 -7 0 -6
-6 -5 -15 2 -11 9 -15 9 -15 1 0 -7 -4 -9 -10 -6 -5 3 -10 2 -10 -3 0 -10 -45
-10 -56 0 -3 4 -13 0 -21 -8 -9 -8 -25 -14 -37 -13 -11 2 -32 -1 -44 -5 -39
-13 -72 -14 -72 -2 0 6 -5 3 -10 -6 -7 -11 -23 -17 -48 -16 -20 0 -48 -4 -62
-9 -14 -5 -37 -8 -52 -7 -15 2 -30 -2 -33 -7 -4 -5 -11 -7 -16 -4 -5 4 -9 1
-9 -6 0 -8 -3 -9 -13 0 -8 6 -16 8 -19 6 -8 -8 -91 -24 -145 -28 -11 -1 -19
-5 -16 -9 2 -5 -1 -8 -6 -8 -6 0 -11 5 -11 11 0 8 -4 8 -14 0 -14 -12 -61 -20
-133 -24 -24 -1 -43 -6 -43 -11 0 -4 -7 -6 -15 -2 -8 3 -15 1 -15 -4 0 -10
-40 -8 -58 4 -11 7 -17 -5 -13 -27 1 -4 -7 -3 -17 2 -13 7 -22 7 -30 -1 -9 -9
-12 -9 -12 1 0 11 -3 11 -15 1 -8 -7 -29 -13 -47 -15 -56 -5 -73 -10 -80 -20
-5 -6 -8 -5 -8 2 0 9 -9 9 -37 -1 -21 -7 -50 -11 -65 -10 -15 2 -30 -2 -33 -7
-4 -5 -11 -7 -16 -4 -5 4 -9 1 -9 -6 0 -9 -3 -9 -14 0 -10 9 -16 9 -21 1 -5
-8 -11 -8 -21 1 -11 9 -14 8 -14 -3 0 -9 -12 -13 -40 -12 -22 0 -40 -2 -40 -6
0 -4 -10 -7 -22 -7 -60 -1 -79 -4 -74 -12 3 -5 -14 -8 -39 -6 -25 1 -45 -2
-45 -6 0 -4 -12 -6 -27 -3 -16 2 -23 1 -17 -3 14 -10 14 -43 0 -43 -8 0 -8 -2
0 -8 14 -9 13 -74 -1 -84 -6 -5 -6 -8 1 -8 14 0 13 -60 -1 -60 -6 0 -6 -3 1
-8 14 -9 13 -74 -1 -84 -7 -5 -6 -8 1 -8 6 0 10 -20 10 -44 0 -26 -4 -42 -9
-39 -6 4 -7 1 -1 -8 12 -21 13 -59 0 -59 -7 0 -8 -3 -1 -8 14 -10 16 -104 2
-95 -6 4 -7 1 -1 -8 14 -23 15 -49 1 -49 -8 0 -8 -3 -2 -8 14 -9 14 -45 0 -54
-7 -5 -6 -8 1 -8 12 0 13 -87 1 -106 -3 -6 -3 -14 0 -18 12 -11 11 -76 -1 -76
-7 0 -7 -3 1 -8 12 -8 13 -29 0 -48 -3 -6 -3 -14 1 -18 12 -12 12 -87 0 -80
-7 5 -8 2 -2 -7 14 -23 15 -49 1 -49 -8 0 -8 -3 -2 -8 6 -4 11 -16 11 -27 0
-11 -5 -23 -11 -27 -7 -5 -6 -8 1 -8 12 0 13 -87 1 -106 -3 -6 -3 -14 0 -18
12 -11 11 -76 -1 -76 -7 0 -7 -3 1 -8 12 -8 13 -29 0 -48 -3 -6 -3 -14 1 -18
12 -12 12 -87 0 -80 -7 5 -8 2 -2 -7 14 -23 15 -49 1 -49 -8 0 -8 -3 -2 -8 6
-4 11 -16 11 -27 0 -11 -5 -23 -11 -27 -7 -5 -6 -8 1 -8 12 0 13 -87 1 -106
-3 -6 -3 -14 0 -18 12 -12 12 -36 0 -36 -9 0 -9 -2 -1 -8 14 -9 13 -74 -1 -84
-7 -5 -6 -8 1 -8 6 0 10 -20 10 -44 0 -26 -4 -42 -9 -39 -6 4 -7 1 -1 -8 12
-21 13 -59 0 -59 -8 0 -8 -2 0 -8 14 -9 13 -62 0 -62 -7 0 -7 -3 0 -8 14 -9
13 -74 -1 -84 -7 -5 -6 -8 1 -8 6 0 10 -20 10 -44 0 -26 -4 -42 -9 -39 -6 4
-7 1 -1 -8 12 -21 13 -59 0 -59 -8 0 -8 -3 0 -8 13 -9 13 -95 -1 -104 -6 -5
-6 -8 2 -8 13 0 13 -26 0 -46 -3 -6 -3 -14 1 -18 12 -12 12 -87 0 -80 -7 5 -8
2 -2 -7 13 -22 14 -43 1 -51 -7 -5 -8 -8 -1 -8 11 0 13 -65 1 -76 -4 -4 -2
-13 3 -20 12 -14 10 -36 -5 -46 -6 -5 -6 -8 2 -8 6 0 11 -8 10 -19 -1 -14 -8
-18 -32 -17 -16 1 -36 5 -44 10 -9 6 -12 5 -8 0 7 -11 -367 -13 -378 -2 -4 4
-15 2 -25 -4 -14 -9 -22 -9 -32 0 -11 9 -17 9 -26 0 -8 -8 -16 -8 -28 3 -10 8
-15 9 -11 3 8 -13 -100 -14 -120 -1 -6 4 -14 4 -17 -1 -7 -11 -237 -9 -255 2
-9 6 -12 5 -8 -1 8 -13 -132 -12 -152 1 -9 6 -12 5 -8 -1 8 -12 -107 -13 -118
-1 -4 4 -15 2 -25 -4 -14 -9 -22 -9 -33 1 -9 7 -18 8 -21 2 -3 -5 -44 -8 -91
-6 -56 2 -83 -1 -79 -7 5 -7 1 -7 -11 -1 -10 6 -26 8 -35 6 -10 -3 -21 0 -24
6 -5 7 -13 7 -26 -1 -14 -9 -22 -9 -33 1 -11 9 -17 9 -22 1 -4 -7 -15 -10 -25
-7 -10 2 -24 1 -31 -4 -12 -8 -11 -11 1 -19 12 -8 12 -10 1 -10 -10 0 -11 -3
-2 -13 8 -10 7 -17 -1 -25 -7 -7 -8 -12 -2 -12 10 0 10 -92 0 -109 -4 -6 -4
-11 1 -11 4 0 8 -31 8 -70 0 -38 -3 -70 -7 -70 -4 0 -3 -13 2 -30 5 -16 5 -30
1 -30 -5 0 -5 -18 -1 -40 5 -26 3 -41 -4 -44 -7 -3 -6 -8 4 -15 12 -8 12 -11
1 -11 -10 0 -11 -3 -2 -13 8 -10 7 -17 -1 -25 -7 -7 -8 -12 -2 -12 10 0 10
-92 0 -109 -4 -6 -4 -11 1 -11 4 0 8 -31 8 -70 0 -38 -3 -70 -7 -70 -4 0 -3
-13 2 -30 5 -16 5 -30 1 -30 -5 0 -5 -18 -1 -40 5 -26 3 -41 -4 -44 -7 -3 -6
-8 4 -15 12 -8 12 -11 1 -11 -10 0 -11 -3 -2 -13 8 -10 7 -17 -1 -25 -7 -7 -8
-12 -2 -12 10 0 10 -92 0 -109 -4 -6 -4 -11 1 -11 4 0 8 -31 8 -70 0 -38 -3
-70 -7 -70 -4 0 -3 -13 2 -30 5 -16 5 -30 1 -30 -5 0 -5 -18 -1 -40 5 -26 3
-41 -4 -44 -7 -3 -6 -8 4 -15 12 -8 12 -11 1 -11 -10 0 -11 -3 -2 -13 8 -10 7
-17 -1 -25 -7 -7 -8 -12 -2 -12 10 0 10 -92 0 -109 -4 -6 -4 -11 1 -11 4 0 8
-31 8 -70 0 -38 -3 -70 -7 -70 -4 0 -3 -13 2 -30 5 -16 5 -30 1 -30 -5 0 -5
-18 -1 -40 5 -26 3 -41 -4 -44 -7 -3 -6 -8 4 -15 12 -8 12 -11 1 -11 -10 0
-11 -3 -2 -13 8 -10 7 -17 -1 -25 -7 -7 -8 -12 -2 -12 10 0 10 -92 0 -109 -4
-6 -4 -11 1 -11 4 0 8 -31 8 -70 0 -38 -3 -70 -7 -70 -4 0 -3 -13 2 -30 5 -16
5 -30 1 -30 -5 0 -5 -18 -1 -40 5 -26 3 -41 -4 -44 -7 -3 -6 -8 4 -15 12 -8
12 -11 1 -11 -10 0 -11 -3 -2 -13 8 -10 7 -17 -1 -25 -7 -7 -8 -12 -2 -12 10
0 10 -92 0 -109 -4 -6 -4 -11 1 -11 4 0 8 -31 8 -70 0 -38 -3 -70 -7 -70 -4 0
-3 -13 2 -30 5 -16 5 -30 1 -30 -5 0 -5 -18 -1 -40 5 -26 3 -41 -4 -44 -7 -3
-6 -8 4 -15 12 -8 12 -11 1 -11 -10 0 -11 -3 -2 -13 8 -10 7 -17 -1 -25 -7 -7
-8 -12 -3 -12 11 0 11 -92 1 -109 -4 -6 -4 -11 1 -11 4 0 8 -31 8 -70 0 -38
-3 -70 -7 -70 -4 0 -3 -13 2 -30 5 -16 5 -30 1 -30 -5 0 -5 -18 -1 -40 4 -22
4 -40 1 -40 -11 0 -7 -54 4 -62 6 -5 4 -12 -5 -18 -12 -8 -12 -10 -1 -10 11 0
11 -3 1 -15 -7 -8 -8 -15 -3 -15 5 0 7 -21 3 -50 -4 -31 -2 -51 4 -54 7 -3 5
-9 -4 -15 -12 -8 -12 -11 -1 -11 11 0 11 -3 1 -15 -9 -11 -9 -15 -1 -15 9 0 9
-5 1 -20 -10 -18 -8 -20 22 -21 18 0 54 -1 81 -2 26 -1 47 2 47 6 0 5 5 5 11
1 16 -9 469 -11 469 -1 0 5 5 5 12 1 18 -12 58 -11 58 1 0 6 3 7 8 0 8 -12
162 -14 162 -2 0 5 5 5 12 1 18 -12 58 -11 58 1 0 6 3 7 8 0 8 -12 162 -14
162 -2 0 5 5 5 11 1 16 -9 359 -11 359 -1 0 5 5 5 12 1 6 -4 59 -7 118 -7 85
1 107 -2 107 -13 0 -8 -5 -14 -11 -14 -8 0 -8 -2 0 -8 14 -9 13 -74 -1 -84 -7
-5 -6 -8 1 -8 6 0 10 -20 10 -44 0 -26 -4 -42 -9 -39 -6 4 -7 1 -1 -8 12 -21
13 -59 0 -59 -7 0 -8 -3 -1 -8 14 -10 16 -104 2 -95 -6 4 -7 1 -1 -8 14 -23
15 -49 1 -49 -8 0 -8 -3 -2 -8 14 -9 14 -45 0 -54 -7 -5 -6 -8 1 -8 12 0 13
-87 1 -106 -3 -6 -3 -14 0 -18 12 -11 11 -76 -1 -76 -7 0 -7 -3 1 -8 12 -8 13
-29 0 -48 -3 -6 -3 -14 1 -18 12 -12 12 -87 0 -80 -7 5 -8 2 -2 -7 14 -23 15
-49 1 -49 -8 0 -8 -3 -2 -8 6 -4 11 -16 11 -27 0 -11 -5 -23 -11 -27 -7 -5 -6
-8 1 -8 12 0 13 -87 1 -106 -3 -6 -3 -14 0 -18 12 -11 11 -76 -1 -76 -7 0 -7
-3 1 -8 12 -8 13 -29 0 -48 -3 -6 -3 -14 1 -18 12 -12 12 -87 0 -80 -7 5 -8 2
-2 -7 14 -23 15 -49 1 -49 -8 0 -8 -3 -2 -8 14 -9 14 -45 0 -54 -7 -5 -6 -8 1
-8 12 0 13 -87 1 -106 -3 -6 -3 -14 0 -18 12 -12 12 -36 0 -36 -9 0 -9 -2 -1
-8 14 -9 13 -74 -1 -84 -7 -5 -6 -8 1 -8 6 0 10 -20 10 -44 0 -26 -4 -42 -9
-39 -6 4 -7 1 -1 -8 12 -21 13 -59 0 -59 -8 0 -8 -2 0 -8 14 -9 13 -62 0 -62
-7 0 -7 -3 0 -8 14 -9 13 -74 -1 -84 -7 -5 -6 -8 1 -8 6 0 10 -20 10 -44 0
-26 -4 -42 -9 -39 -6 4 -7 1 -1 -8 12 -21 13 -59 0 -59 -8 0 -8 -2 0 -8 14 -9
13 -62 0 -62 -7 0 -7 -3 0 -8 14 -9 13 -74 -1 -84 -7 -5 -6 -8 1 -8 6 0 10
-20 10 -44 0 -26 -4 -42 -9 -39 -6 4 -7 1 -1 -8 12 -21 13 -59 0 -59 -8 0 -8
-2 0 -8 14 -9 13 -62 0 -62 -7 0 -7 -3 0 -8 14 -9 13 -74 -1 -84 -7 -5 -6 -8
1 -8 6 0 10 -20 10 -44 0 -26 -4 -42 -9 -39 -6 4 -7 1 -1 -8 12 -21 13 -59 0
-59 -7 0 -8 -3 -1 -8 14 -10 16 -104 2 -95 -6 4 -7 1 -1 -8 14 -23 15 -49 1
-49 -8 0 -8 -3 -2 -8 6 -4 11 -16 11 -27 0 -11 -5 -23 -11 -27 -7 -5 -6 -8 1
-8 12 0 13 -87 1 -106 -3 -6 -3 -14 0 -18 12 -11 11 -76 -1 -76 -7 0 -7 -3 1
-8 12 -8 13 -29 0 -48 -3 -6 -3 -14 1 -18 12 -12 12 -87 0 -80 -7 5 -8 2 -2
-7 14 -23 15 -49 1 -49 -7 0 -8 -3 -2 -8 15 -11 17 -64 2 -55 -9 5 -9 3 -1 -8
12 -16 13 -87 1 -106 -4 -6 -3 -14 3 -18 5 -3 10 -11 10 -16 0 -6 -5 -7 -12
-3 -7 5 -8 3 -2 -7 13 -22 16 -38 17 -131 1 -49 5 -88 8 -88 4 0 3 -15 0 -32
-4 -18 -3 -48 2 -66 4 -19 6 -40 3 -48 -3 -8 0 -14 7 -14 8 0 6 -4 -3 -10 -8
-5 -10 -10 -4 -10 5 0 11 -23 11 -52 2 -61 11 -157 18 -175 2 -7 1 -13 -4 -13
-4 0 -6 -11 -3 -25 2 -14 7 -23 11 -21 3 2 7 -14 7 -35 1 -25 -2 -37 -9 -32
-6 4 -7 1 -2 -8 5 -7 10 -24 11 -38 2 -13 7 -28 13 -34 7 -7 7 -16 0 -29 -7
-13 -6 -18 2 -18 8 0 9 -4 0 -13 -7 -9 -7 -17 0 -24 5 -5 11 -32 13 -59 2 -27
9 -61 15 -76 6 -16 7 -28 3 -28 -4 0 -8 -9 -8 -19 0 -11 4 -17 8 -15 8 5 9 -3
12 -56 0 -14 5 -31 9 -37 5 -7 5 -17 2 -23 -3 -5 0 -10 7 -10 8 0 9 -3 3 -8
-14 -10 -18 -35 -4 -27 7 5 10 -1 8 -16 -1 -13 3 -36 9 -51 6 -14 13 -43 15
-65 2 -21 7 -45 11 -53 3 -8 7 -24 9 -35 1 -11 6 -25 10 -32 4 -6 1 -14 -5
-16 -9 -4 -8 -6 2 -6 9 -1 16 -12 16 -26 1 -16 -2 -23 -10 -18 -6 3 -2 -4 9
-16 12 -14 19 -33 17 -48 -3 -18 0 -23 9 -18 9 6 11 2 7 -13 -4 -15 0 -25 10
-32 10 -5 12 -10 4 -10 -14 0 -12 -19 5 -37 6 -7 10 -21 9 -30 -2 -10 4 -23
13 -30 9 -7 11 -12 4 -13 -8 0 -7 -9 4 -31 8 -17 16 -41 17 -54 0 -13 4 -21 9
-18 7 4 11 -19 8 -46 -2 -8 2 -10 10 -6 9 6 10 1 7 -19 -4 -18 -1 -26 8 -26 8
0 13 -3 13 -7 -4 -22 2 -43 10 -39 5 4 7 -3 4 -14 -3 -12 0 -20 6 -20 7 0 9
-5 6 -10 -3 -6 4 -24 16 -42 13 -17 16 -28 8 -23 -11 7 -12 6 -2 -7 7 -8 9
-19 5 -23 -4 -5 -1 -5 7 0 11 6 13 3 9 -13 -4 -12 -3 -20 1 -17 10 6 31 -39
31 -65 0 -11 5 -20 10 -20 6 0 10 -7 10 -16 0 -8 4 -12 10 -9 6 4 7 -1 3 -11
-4 -11 -3 -15 4 -11 7 5 9 -1 5 -15 -3 -14 -1 -19 6 -14 6 3 13 2 17 -4 3 -5
2 -10 -3 -10 -5 0 -9 -7 -9 -15 0 -12 3 -12 15 -2 13 10 15 9 10 -11 -4 -14
-2 -20 5 -15 6 4 8 0 4 -10 -4 -11 -1 -17 8 -17 9 0 12 -6 8 -17 -4 -11 -3
-14 5 -9 7 4 12 2 12 -3 0 -18 3 -26 17 -39 7 -8 11 -17 8 -22 -3 -4 2 -11 10
-14 8 -3 14 -9 14 -13 -4 -16 14 -43 24 -36 6 4 8 0 4 -10 -3 -10 -3 -17 2
-17 5 0 16 -12 26 -26 9 -15 12 -23 6 -20 -6 4 -11 2 -11 -3 0 -6 6 -11 14
-11 8 0 18 -5 22 -12 5 -7 2 -9 -7 -4 -8 4 -4 -1 8 -12 12 -11 19 -22 16 -26
-4 -3 -1 -6 6 -6 7 0 10 -3 8 -7 -7 -11 19 -33 27 -25 4 3 4 -1 0 -11 -4 -12
-1 -17 10 -17 14 0 18 -6 15 -26 0 -3 9 -14 21 -24 12 -11 19 -24 15 -29 -3
-6 5 -16 19 -23 14 -6 26 -17 26 -25 0 -7 8 -13 18 -13 14 0 15 -2 2 -10 -13
-8 -13 -10 2 -10 9 0 20 -5 24 -12 5 -7 3 -8 -7 -3 -12 8 -12 6 0 -8 7 -9 20
-17 28 -17 8 0 11 -4 8 -10 -3 -5 -1 -10 4 -10 6 0 11 -9 11 -19 0 -11 4 -23
10 -26 6 -3 7 1 4 9 -3 9 -3 16 0 16 4 0 12 -14 18 -31 6 -16 12 -28 15 -25 6
6 43 -31 43 -44 0 -5 7 -7 15 -4 10 4 13 0 10 -15 -2 -12 0 -19 5 -16 14 9 50
-18 50 -37 0 -9 9 -20 20 -23 11 -3 20 -13 20 -21 0 -8 5 -12 10 -9 6 3 10 1
10 -5 0 -6 5 -8 10 -5 6 3 10 0 10 -7 0 -8 9 -20 19 -28 11 -7 17 -18 14 -23
-3 -6 -1 -7 5 -3 6 3 17 -1 25 -9 9 -8 21 -15 27 -15 6 0 8 -4 5 -10 -3 -5 1
-10 9 -10 8 0 27 -15 41 -33 15 -17 24 -25 19 -17 -5 10 0 9 14 -4 12 -11 22
-26 22 -35 0 -14 2 -14 9 -2 8 12 12 10 22 -11 6 -15 19 -30 27 -33 12 -4 11
0 -4 17 -10 12 -1 7 21 -12 22 -19 39 -38 38 -42 -2 -4 8 -8 21 -8 13 0 30 -8
37 -17 13 -17 13 -17 -6 -3 -18 14 -19 14 -7 -2 8 -9 20 -14 28 -11 7 3 17 -2
20 -11 3 -9 12 -16 20 -16 8 0 14 -5 14 -11 0 -5 5 -7 10 -4 6 3 10 -1 10 -9
0 -9 5 -16 11 -16 5 0 7 6 3 12 -4 7 4 3 18 -9 13 -13 28 -23 33 -23 5 0 22
-12 38 -27 17 -16 27 -22 23 -16 -5 9 -2 11 8 7 9 -3 13 -10 10 -15 -3 -5 4
-9 16 -9 12 0 18 -4 15 -10 -3 -6 1 -7 9 -4 10 4 16 1 16 -7 0 -7 3 -10 6 -6
3 3 16 -3 27 -14 12 -11 27 -17 34 -15 7 3 13 -1 13 -8 0 -8 8 -13 18 -11 9 1
30 -9 46 -24 16 -14 26 -20 22 -13 -7 11 -4 11 12 1 12 -7 18 -17 15 -23 -3
-5 -1 -6 5 -3 15 10 43 -3 35 -17 -4 -6 1 -5 10 3 15 12 17 11 17 -3 0 -10 4
-15 9 -11 6 3 25 -3 44 -14 19 -11 38 -17 41 -14 3 4 6 1 6 -6 0 -7 4 -10 9
-7 5 4 11 2 13 -4 2 -6 13 -12 25 -14 12 -3 31 -10 42 -16 12 -6 21 -7 21 -3
0 4 4 2 9 -5 4 -7 18 -14 29 -15 12 -1 22 -5 22 -9 0 -4 11 -8 25 -8 13 0 29
-8 34 -17 6 -10 11 -12 11 -5 0 18 20 15 20 -4 0 -11 6 -14 20 -9 11 3 20 2
20 -3 0 -6 7 -13 16 -16 9 -4 13 -2 8 5 -4 6 4 5 17 -2 27 -15 23 -14 67 -24
17 -4 32 -11 32 -16 0 -4 9 -6 20 -4 11 2 20 0 20 -5 0 -5 9 -7 19 -5 11 2 22
-2 24 -9 3 -8 17 -12 31 -11 14 2 26 -2 26 -8 0 -5 3 -8 6 -4 4 3 19 0 34 -8
17 -9 31 -10 37 -4 6 6 16 3 29 -8 18 -17 44 -24 92 -23 12 0 22 -4 22 -9 0
-5 15 -11 33 -14 17 -3 50 -8 72 -11 21 -4 42 -12 46 -17 4 -8 9 -8 14 1 5 8
11 8 23 -3 10 -7 34 -13 55 -12 20 0 37 -3 37 -7 0 -4 18 -8 40 -8 22 0 40 -4
40 -9 0 -6 12 -9 28 -7 15 1 42 -3 59 -10 20 -8 35 -9 38 -3 4 6 13 5 24 -1
10 -5 21 -6 25 -3 3 3 6 1 6 -4 0 -6 8 -10 18 -8 9 1 23 -3 31 -9 12 -8 13 -8
7 2 -6 10 -1 11 21 6 15 -4 31 -11 34 -17 4 -6 9 -5 13 1 4 7 17 7 36 2 17 -5
30 -7 30 -4 0 3 10 0 21 -7 17 -9 20 -8 14 3 -6 10 -5 11 6 1 16 -16 33 -17
23 -1 -5 8 -3 8 7 2 8 -5 23 -9 34 -10 68 -5 97 -9 101 -16 3 -4 10 -8 15 -8
6 0 8 3 6 8 -5 7 40 6 108 -3 22 -3 66 -7 97 -7 35 -1 55 -5 51 -11 -4 -6 -1
-7 8 -1 21 13 57 16 64 4 4 -7 12 -7 26 0 14 8 19 7 19 -1 0 -8 4 -9 13 0 8 6
17 8 20 5 4 -4 83 -7 176 -8 93 -1 173 -4 176 -8 4 -4 18 -3 31 2 15 6 26 6
30 -1 4 -8 9 -7 15 2 5 8 9 9 9 4 0 -6 9 -11 20 -11 11 0 20 3 20 6 0 8 37 6
46 -2 3 -4 16 -3 29 2 13 5 25 6 28 4 9 -9 96 -11 91 -2 -3 4 1 6 8 4 37 -12
78 -15 73 -6 -3 5 0 8 7 6 37 -12 78 -15 73 -6 -3 5 0 8 7 6 34 -11 78 -15 74
-7 -4 5 9 5 29 1 24 -5 35 -4 35 3 0 8 3 8 11 0 8 -8 20 -8 35 -3 15 6 26 5
30 -1 4 -8 9 -7 15 2 6 9 9 10 9 2 0 -8 9 -9 30 -3 17 5 28 5 26 1 -3 -4 271
-7 609 -7 337 0 611 4 609 7 -2 4 12 3 31 -1 24 -5 35 -4 35 3 0 8 3 8 11 0 8
-8 20 -8 35 -3 15 6 26 5 30 -1 4 -8 9 -7 15 2 5 8 9 9 9 4 0 -6 9 -11 20 -11
11 0 20 3 20 6 0 8 37 6 46 -2 3 -4 16 -3 29 2 13 5 25 6 28 3 10 -9 77 -9 77
1 0 6 5 5 11 -1 8 -8 20 -8 35 -3 15 6 26 5 30 -1 4 -8 9 -7 15 2 5 8 9 9 9 4
0 -6 9 -11 20 -11 11 0 20 4 20 8 0 5 10 4 21 -3 17 -9 20 -8 14 2 -5 8 -4 10
4 5 19 -12 61 -14 61 -3 0 6 4 6 13 -1 13 -10 48 -2 49 12 0 5 -6 13 -14 17
-8 5 -8 9 -2 9 14 0 13 72 -1 82 -6 5 -5 8 4 8 11 0 11 3 1 15 -9 10 -9 15 -1
15 11 0 11 27 -2 47 -4 6 -3 14 2 17 10 7 9 25 -2 43 -4 6 -3 14 1 17 10 6 10
46 -1 63 -4 6 -3 14 2 17 10 7 9 25 -2 43 -4 6 -4 14 1 17 10 6 9 97 -1 113
-4 6 -3 14 2 17 10 7 9 25 -2 43 -4 6 -3 14 2 17 10 7 9 25 -2 43 -4 6 -3 14
2 17 11 7 9 25 -3 45 -6 10 -5 12 3 7 8 -5 10 0 7 18 -3 14 -7 30 -10 35 -4 5
-2 12 3 15 10 7 9 25 -2 43 -4 6 -3 14 2 17 10 7 9 25 -2 43 -4 6 -3 14 2 17
11 7 9 25 -3 45 -6 10 -5 12 3 7 12 -8 9 33 -5 55 -4 8 -3 9 4 5 8 -5 11 0 8
16 -2 13 1 29 7 36 7 9 6 11 -4 7 -10 -4 -15 1 -15 15 0 11 4 20 8 20 9 0 6
29 -5 47 -4 6 -3 14 2 17 10 7 9 25 -2 43 -4 6 -3 14 1 17 10 6 10 46 -1 63
-4 6 -3 14 2 17 10 7 9 25 -2 42 -3 6 -3 14 0 18 10 10 10 106 0 113 -4 2 -4
10 1 16 12 15 11 47 0 47 -5 0 -6 6 -2 12 12 19 12 48 0 48 -7 0 -7 3 1 8 12
8 13 29 0 49 -4 6 -3 14 2 17 10 7 9 25 -2 43 -4 6 -3 14 2 17 10 7 9 25 -2
42 -3 6 -3 14 0 18 12 12 12 40 0 48 -8 5 -8 8 -1 8 11 0 12 28 1 46 -3 6 -3
14 0 18 13 12 13 46 0 46 -7 0 -8 3 -2 8 14 10 16 45 2 54 -7 4 -7 8 -2 8 12
0 13 69 2 87 -4 6 -3 14 2 17 10 7 9 25 -2 43 -4 6 -3 14 1 17 10 6 10 46 -1
62 -3 6 -3 14 0 18 12 12 12 40 0 48 -7 4 -7 8 -2 8 14 0 15 50 1 50 -6 0 -4
5 4 10 8 5 11 10 6 10 -5 0 -2 8 5 17 8 9 9 14 3 10 -7 -4 -14 2 -17 13 -3 11
-1 23 4 26 12 7 8 36 -6 46 -6 5 -6 8 1 8 12 0 13 38 1 57 -4 6 -3 14 2 17 10
7 9 25 -2 42 -3 6 -4 14 0 18 10 9 10 96 1 102 -5 3 -5 11 -1 17 11 18 12 36
2 43 -5 3 -6 11 -2 17 11 17 11 57 1 63 -4 3 -5 11 -1 17 13 20 12 41 0 49 -7
4 -7 8 -2 8 14 0 15 50 1 50 -6 0 -4 5 4 10 8 5 11 10 6 10 -5 0 -2 8 5 17 8
9 9 14 3 10 -7 -4 -14 2 -17 13 -3 11 -1 23 4 26 12 7 8 36 -6 46 -6 5 -6 8 1
8 12 0 13 38 1 57 -4 6 -3 14 2 17 10 7 9 25 -2 42 -3 6 -4 14 0 18 10 9 10
96 1 102 -5 3 -5 11 0 17 12 16 11 47 -1 47 -6 0 -6 5 0 13 13 15 13 47 0 47
-6 0 -6 5 0 13 13 16 13 47 -1 47 -5 0 -1 7 10 16 10 8 13 12 5 8 -11 -5 -13
-2 -9 14 4 13 1 22 -5 22 -8 0 -8 3 1 9 7 4 12 14 10 22 -4 19 -28 43 -35 35
-3 -3 -13 0 -21 7 -9 6 -13 7 -10 2 4 -7 -22 -10 -72 -10 -44 0 -76 4 -73 9 4
5 0 5 -8 0 -17 -10 -59 -14 -59 -4 0 3 -23 5 -52 4 -29 -2 -56 0 -61 3 -17 10
-87 8 -87 -2 0 -5 -5 -3 -10 5 -7 11 -10 11 -10 2 0 -7 -4 -11 -9 -7 -5 3 -82
6 -170 8 -89 1 -161 6 -161 11 0 4 -7 6 -15 2 -8 -3 -15 0 -15 7 0 9 -2 9 -8
1 -4 -8 -33 -11 -77 -9 -42 2 -76 -2 -84 -9 -11 -8 -13 -8 -8 1 5 8 -8 10 -46
9 -28 -1 -55 3 -59 8 -6 8 -8 8 -8 0 0 -6 -17 -9 -42 -8 -104 7 -215 7 -226 0
-7 -4 -12 -4 -12 1 0 4 -19 7 -42 5 -24 -1 -47 -3 -53 -3 -130 2 -225 7 -225
13 0 4 -5 8 -11 8 -5 0 -7 -4 -4 -10 4 -6 -2 -7 -17 -2 -13 4 -36 7 -53 6 -16
-1 -36 3 -42 8 -7 6 -13 7 -13 4 0 -4 -10 -2 -21 5 -12 6 -19 7 -15 1 8 -14
-37 -2 -46 12 -5 7 -8 7 -8 -2 0 -10 -4 -10 -22 0 -13 7 -34 14 -47 15 -13 1
-28 8 -32 15 -7 10 -9 10 -9 -2 -1 -12 -3 -12 -14 3 -8 10 -20 15 -30 11 -9
-3 -16 -1 -16 5 0 6 -8 11 -18 11 -10 0 -27 8 -38 18 -11 10 -26 16 -33 14 -8
-3 -11 0 -7 7 5 7 1 9 -8 5 -9 -3 -16 -1 -16 5 0 6 -7 11 -16 11 -8 0 -12 5
-9 10 5 9 -15 15 -37 11 -8 -1 -12 15 -9 32 1 5 -3 6 -9 2 -5 -3 -22 7 -37 23
-24 24 -25 24 -9 2 11 -14 3 -8 -17 12 -20 20 -37 41 -37 47 0 6 -11 18 -24
27 -15 9 -23 21 -19 30 3 8 2 14 -3 13 -23 -4 -33 2 -27 18 4 11 3 14 -5 9 -7
-4 -14 3 -18 19 -3 14 -10 25 -15 25 -5 0 -9 6 -9 14 0 7 -7 19 -16 27 -8 7
-13 21 -11 31 3 10 1 16 -4 12 -8 -5 -13 9 -10 29 0 4 -6 7 -15 7 -13 0 -14 3
-4 15 10 12 9 16 -3 21 -9 3 -14 14 -12 25 2 11 0 17 -6 14 -8 -5 -14 15 -10
38 0 4 -3 7 -9 7 -5 0 -7 7 -4 15 4 8 2 15 -4 15 -6 0 -9 12 -7 26 1 14 -3 31
-9 37 -14 14 -14 27 -2 46 6 10 5 12 -2 7 -12 -7 -14 2 -16 49 0 11 -4 23 -9
26 -4 3 -9 27 -10 52 -1 26 -4 47 -7 47 -3 0 -6 19 -7 43 -3 88 -10 154 -17
165 -3 6 -2 13 4 17 6 4 7 13 2 23 -9 19 -8 54 2 70 3 6 2 13 -2 16 -10 6 -9
36 2 54 4 6 3 12 -1 12 -5 0 -9 22 -9 50 1 27 5 50 10 50 5 0 2 8 -5 17 -12
14 -12 16 0 8 11 -6 12 -5 5 6 -12 19 -11 82 1 91 7 5 6 8 -1 8 -11 0 -12 66
-1 76 3 4 3 14 -1 23 -9 18 -8 58 2 68 3 3 1 12 -5 20 -9 10 -8 13 2 13 12 0
12 2 1 9 -8 4 -14 12 -14 16 0 4 6 12 14 16 7 5 8 9 2 9 -6 0 -10 21 -10 50 1
27 5 50 10 50 5 0 2 8 -5 17 -12 14 -12 16 0 8 11 -6 12 -5 5 6 -12 19 -11 89
1 89 7 0 6 3 0 8 -12 9 -14 112 -1 112 5 0 2 8 -5 17 -12 15 -12 16 1 8 12 -7
13 -6 3 6 -13 16 -12 36 0 57 5 6 4 12 0 12 -5 0 -9 11 -9 25 0 14 3 25 6 25
8 0 6 32 -2 45 -7 11 -3 68 5 82 3 5 2 15 -3 23 -5 8 -5 21 1 31 6 11 5 20 -1
24 -11 7 -9 33 3 53 5 6 4 12 0 12 -5 0 -9 11 -9 25 0 14 3 25 6 25 6 0 5 37
-1 50 -6 16 -3 120 5 120 5 0 2 8 -5 17 -12 15 -12 16 1 8 12 -7 13 -6 3 6
-13 16 -12 36 0 57 5 6 4 12 0 12 -5 0 -9 11 -9 25 0 14 3 25 6 25 8 0 6 32
-2 45 -7 11 -3 68 5 82 3 5 2 15 -3 23 -5 8 -5 21 1 31 6 11 5 20 -1 24 -11 7
-9 33 3 53 5 6 4 12 0 12 -5 0 -9 11 -9 25 0 14 3 25 6 25 8 0 7 31 -1 45 -5
9 -4 81 1 95 1 3 1 10 0 15 -6 26 -6 52 2 67 4 9 4 19 0 22 -10 6 -9 36 2 54
4 6 3 12 -1 12 -5 0 -9 22 -9 50 1 27 5 50 10 50 5 0 2 8 -5 17 -12 14 -12 16
0 8 11 -6 12 -5 5 6 -12 19 -11 82 1 91 7 5 6 8 -1 8 -11 0 -12 66 -1 76 3 4
3 14 -1 23 -9 18 -8 58 2 68 3 3 1 12 -5 20 -9 10 -8 13 2 13 12 0 12 2 1 9
-8 4 -14 12 -14 16 0 4 6 12 14 16 7 5 8 9 2 9 -6 0 -10 21 -10 50 1 27 5 50
10 50 5 0 2 8 -5 17 -12 14 -12 16 0 8 11 -6 12 -5 5 6 -12 19 -11 89 1 89 7
0 7 3 0 8 -5 4 -10 16 -10 27 0 17 7 20 43 20 23 0 42 4 42 8 0 5 5 5 12 1 17
-11 58 -11 58 -1 0 4 5 5 12 1 18 -11 68 -10 68 1 0 7 3 7 8 0 8 -12 162 -14
162 -2 0 5 5 5 12 1 18 -12 58 -11 58 1 0 6 3 7 8 0 4 -5 21 -10 37 -10 17 0
33 5 37 10 5 7 8 7 8 0 0 -6 33 -10 80 -10 44 0 80 4 80 8 0 5 5 5 12 1 17
-11 58 -11 58 -1 0 4 5 5 12 1 18 -11 68 -10 68 1 0 7 3 7 8 0 8 -12 162 -14
162 -2 0 5 5 5 12 1 18 -12 58 -11 58 1 0 6 3 7 8 0 4 -5 21 -10 37 -10 17 0
33 5 37 10 5 7 8 7 8 0 0 -6 33 -10 80 -10 44 0 80 4 80 8 0 5 5 5 12 1 17
-11 58 -11 58 -1 0 4 5 5 12 1 18 -11 68 -10 68 1 0 7 3 7 8 0 8 -12 162 -14
162 -2 0 5 5 5 12 1 18 -12 58 -11 58 1 0 6 3 7 8 0 4 -5 21 -10 37 -10 17 0
33 5 37 10 5 7 8 7 8 0 0 -6 33 -10 80 -10 44 0 80 4 80 8 0 5 5 5 12 1 17
-11 58 -11 58 -1 0 4 5 5 12 1 18 -11 68 -10 68 1 0 7 3 7 8 0 8 -12 162 -14
162 -2 0 5 5 5 12 1 18 -12 58 -11 58 1 0 6 3 7 8 0 4 -5 21 -10 37 -10 17 0
33 5 37 10 5 7 8 7 8 0 0 -6 53 -9 142 -9 l142 2 2 26 c0 14 -4 26 -10 26 -7
0 -8 3 -1 8 12 8 13 22 3 38 -4 6 -4 14 -1 18 12 12 11 56 -1 56 -7 0 -8 3 -1
8 13 9 13 42 1 61 -6 10 -5 12 3 7 8 -5 10 0 7 18 -3 14 -7 30 -10 35 -4 5 -2
12 3 15 10 7 9 25 -2 43 -4 6 -3 14 2 17 10 7 9 25 -2 43 -4 6 -3 14 2 17 11
7 9 25 -3 45 -6 10 -5 12 3 7 12 -8 9 33 -5 55 -4 8 -3 9 4 5 8 -5 11 0 8 16
-2 13 1 29 7 36 7 9 6 11 -4 7 -10 -4 -15 1 -15 15 0 11 4 20 8 20 9 0 6 29
-5 47 -4 6 -3 14 2 17 10 7 9 25 -2 43 -4 6 -3 14 1 17 10 6 10 46 -1 63 -4 6
-3 14 2 17 10 7 9 25 -2 42 -3 6 -3 14 0 18 10 10 10 106 0 113 -4 2 -4 10 1
16 12 15 11 47 0 47 -5 0 -6 6 -2 12 12 19 12 48 0 48 -7 0 -7 3 1 8 12 8 13
29 0 49 -4 6 -3 14 2 17 10 7 9 25 -2 43 -4 6 -3 14 2 17 10 7 9 25 -2 42 -3
6 -3 14 0 18 12 12 12 40 0 48 -8 5 -8 8 -1 8 11 0 12 28 1 46 -3 6 -3 14 0
18 13 12 13 46 0 46 -7 0 -8 3 -2 8 14 10 16 45 2 54 -7 4 -7 8 -2 8 12 0 13
69 2 87 -4 6 -3 14 2 17 10 7 9 25 -2 43 -4 6 -3 14 1 17 10 6 10 46 -1 62 -3
6 -3 14 0 18 12 12 12 40 0 48 -7 4 -7 8 -2 8 14 0 15 50 1 50 -6 0 -4 5 4 10
8 5 11 10 6 10 -5 0 -2 8 5 17 8 9 9 14 3 10 -7 -4 -14 2 -17 13 -3 11 -1 23
4 26 12 7 8 36 -6 46 -6 5 -6 8 1 8 12 0 13 38 1 57 -4 6 -3 14 2 17 10 7 9
25 -2 42 -3 6 -4 14 0 18 10 9 10 96 1 102 -5 3 -5 11 -1 17 11 18 12 36 2 43
-5 3 -6 11 -2 17 11 17 11 57 1 63 -4 3 -5 11 -1 17 13 20 12 41 0 49 -7 4 -7
8 -2 8 14 0 15 50 1 50 -6 0 -4 5 4 10 8 5 11 10 6 10 -5 0 -2 8 5 17 8 9 9
14 3 10 -7 -4 -14 2 -17 13 -3 11 -1 23 4 26 12 7 8 36 -6 46 -6 5 -6 8 1 8
12 0 13 38 1 57 -4 6 -3 14 2 17 10 7 9 25 -2 42 -3 6 -4 14 0 18 10 9 10 96
1 102 -5 3 -5 11 0 17 12 15 11 47 0 47 -5 0 -6 6 -2 12 12 19 12 48 0 48 -7
0 -7 3 1 8 12 8 13 29 0 49 -4 6 -3 14 2 17 10 7 9 25 -2 43 -4 6 -3 14 2 17
10 7 9 25 -2 42 -3 6 -3 14 0 18 12 12 12 40 0 48 -8 5 -8 8 -1 8 11 0 12 28
1 46 -3 6 -3 14 0 18 13 12 13 46 0 46 -7 0 -8 3 -2 8 14 10 16 45 2 54 -9 6
-8 8 2 8 11 0 11 3 1 15 -9 10 -9 15 -1 15 11 0 11 27 -2 47 -4 6 -3 14 2 17
10 7 9 25 -2 42 -3 6 -3 14 0 18 13 13 11 35 -5 48 -9 7 -13 8 -9 2 8 -13
-100 -14 -119 -2 -6 4 -14 4 -18 0 -11 -10 -215 -11 -222 -1 -3 5 -13 3 -24
-3 -14 -9 -22 -9 -33 1 -9 7 -18 8 -21 2 -3 -5 -44 -8 -91 -6 -56 2 -83 -1
-79 -7 5 -7 1 -7 -11 -1 -10 6 -26 8 -35 6 -10 -3 -21 0 -24 6 -5 7 -13 7 -26
-1 -14 -9 -22 -9 -33 1 -9 7 -18 8 -21 2 -3 -5 -44 -8 -91 -6 -62 2 -83 0 -78
-9 5 -8 3 -8 -8 0 -8 5 -30 9 -49 8 -19 0 -41 4 -49 10 -11 8 -13 8 -8 0 8
-14 -130 -13 -152 0 -9 6 -12 5 -8 -1 7 -11 -267 -12 -278 -1 -4 4 -16 2 -26
-5 -14 -9 -21 -9 -31 1 -8 8 -15 9 -25 1 -10 -9 -17 -8 -30 2 -9 8 -14 9 -10
3 8 -13 -100 -14 -120 -1 -6 4 -14 4 -17 -1 -7 -11 -237 -9 -255 2 -9 6 -12 5
-8 -1 8 -13 -132 -12 -152 1 -9 6 -12 5 -8 -1 8 -12 -107 -13 -118 -1 -4 4
-15 2 -25 -4 -14 -9 -22 -9 -33 1 -9 7 -18 8 -21 2 -3 -5 -44 -8 -91 -6 -56 2
-83 -1 -79 -7 5 -7 1 -7 -11 -1 -10 6 -26 8 -35 6 -10 -3 -21 0 -24 6 -5 7
-13 7 -26 -1 -14 -9 -22 -9 -33 0 -7 7 -17 8 -21 4 -4 -4 -23 -7 -41 -7 -32
-1 -41 12 -20 27 6 5 6 8 -1 8 -11 0 -11 66 0 77 3 3 1 12 -5 20 -9 10 -8 13
2 13 12 0 12 2 1 9 -8 4 -14 12 -14 16 0 4 6 12 14 16 7 5 8 9 2 9 -6 0 -10
21 -10 50 1 27 5 50 10 50 5 0 2 8 -5 17 -12 14 -12 16 0 8 11 -6 12 -5 5 6
-12 19 -11 89 1 89 6 0 6 3 0 8 -12 8 -13 22 -2 40 5 6 4 12 -1 12 -5 0 -9 7
-9 15 0 8 5 15 11 15 7 0 8 3 1 8 -13 9 -14 102 -1 102 5 0 2 8 -5 17 -12 14
-12 16 0 8 11 -6 12 -5 5 6 -12 19 -11 82 1 91 7 5 6 8 -1 8 -8 0 -11 60 -4
80 1 3 1 10 0 15 -6 26 -6 52 2 67 4 9 4 19 0 22 -10 6 -9 36 2 54 4 6 3 12
-1 12 -5 0 -9 22 -9 50 1 27 5 50 10 50 5 0 2 8 -5 17 -12 14 -12 16 0 8 11
-6 12 -5 5 6 -12 19 -11 82 1 91 7 5 6 8 -1 8 -11 0 -12 66 -1 76 3 4 3 14 -1
23 -9 18 -8 58 2 68 3 3 1 12 -5 20 -9 10 -8 13 2 13 12 0 12 2 1 9 -8 4 -14
12 -14 16 0 4 6 12 14 16 7 5 8 9 2 9 -6 0 -10 21 -10 50 1 27 5 50 10 50 5 0
2 8 -5 17 -12 14 -12 16 0 8 11 -6 12 -5 5 6 -12 19 -11 89 1 89 6 0 4 4 -3 9
-15 9 -15 20 0 39 6 7 7 12 1 12 -5 0 -10 7 -10 15 0 8 5 15 11 15 7 0 8 3 1
8 -13 9 -14 102 -1 102 5 0 2 8 -5 17 -12 14 -12 16 0 8 11 -6 12 -5 5 6 -12
19 -11 82 1 91 7 5 6 8 -1 8 -8 0 -11 60 -4 80 1 3 1 10 0 15 -6 26 -6 52 2
67 4 9 4 19 0 22 -10 6 -9 36 2 54 4 6 3 12 -1 12 -5 0 -9 22 -9 50 1 27 5 50
10 50 5 0 2 8 -5 17 -12 14 -12 16 0 8 11 -6 12 -5 5 6 -12 19 -11 82 1 91 7
5 6 8 -1 8 -11 0 -12 66 -1 76 3 4 3 14 -1 23 -9 18 -8 58 2 68 3 3 1 12 -5
20 -9 10 -8 13 2 13 12 0 12 2 1 9 -8 4 -14 12 -14 16 0 4 6 12 14 16 7 5 8 9
2 9 -6 0 -10 21 -10 50 1 27 5 50 10 50 5 0 2 8 -5 17 -12 14 -12 16 0 8 11
-6 12 -5 5 6 -12 19 -11 89 1 89 6 0 6 3 0 8 -12 8 -13 22 -2 40 5 6 4 12 -1
12 -5 0 -9 7 -9 15 0 8 5 15 11 15 7 0 8 3 1 8 -13 9 -14 102 -1 102 5 0 2 8
-5 17 -12 14 -12 16 0 8 11 -6 12 -5 5 6 -12 19 -11 89 1 89 6 0 6 3 0 8 -14
9 -13 65 0 74 7 5 7 8 0 8 -11 0 -13 65 -2 76 3 4 3 14 -1 23 -9 20 -9 42 1
59 5 6 4 12 0 12 -5 0 -9 22 -9 50 1 27 5 50 11 50 5 0 4 5 -3 12 -15 15 -70
19 -101 7z"/>
</g>
</svg>
